<?xml version="1.0" encoding="utf-8"?>
<!-- Generator: Adobe Illustrator 21.0.0, SVG Export Plug-In . SVG Version: 6.00 Build 0)  -->
<svg version="1.1" id="Layer_1" xmlns="http://www.w3.org/2000/svg" xmlns:xlink="http://www.w3.org/1999/xlink" x="0px" y="0px"
	 viewBox="0 0 25.7 24.3" style="enable-background:new 0 0 25.7 24.3;" xml:space="preserve">
<style type="text/css">
	.st0{fill:url(#SVGID_1_);}
	.st1{fill:#196C95;}
	.st2{fill:#18384F;}
</style>
<linearGradient id="SVGID_1_" gradientUnits="userSpaceOnUse" x1="0.2676" y1="16.3591" x2="20.6107" y2="16.3591">
	<stop  offset="9.280507e-05" style="stop-color:#B1B3B6;stop-opacity:0"/>
	<stop  offset="1.000000e-02" style="stop-color:#B1B3B6;stop-opacity:0.1"/>
	<stop  offset="3.990298e-02" style="stop-color:#B1B3B6;stop-opacity:0.23"/>
	<stop  offset="6.000000e-02" style="stop-color:#B1B3B6;stop-opacity:0.35"/>
	<stop  offset="9.000000e-02" style="stop-color:#B1B3B6;stop-opacity:0.44"/>
	<stop  offset="0.1298" style="stop-color:#B1B3B6;stop-opacity:0.51"/>
	<stop  offset="0.1596" style="stop-color:#B1B3B6;stop-opacity:0.56"/>
	<stop  offset="0.22" style="stop-color:#B1B3B6;stop-opacity:0.59"/>
	<stop  offset="0.32" style="stop-color:#B1B3B6;stop-opacity:0.6"/>
	<stop  offset="0.5198" style="stop-color:#B1B3B6;stop-opacity:0.71"/>
	<stop  offset="0.8" style="stop-color:#B1B3B6;stop-opacity:0.85"/>
	<stop  offset="0.9598" style="stop-color:#B1B3B6;stop-opacity:0.9"/>
	<stop  offset="0.9699" style="stop-color:#B1B3B6;stop-opacity:0.89"/>
	<stop  offset="0.98" style="stop-color:#B1B3B6;stop-opacity:0.87"/>
	<stop  offset="0.9893" style="stop-color:#B1B3B6;stop-opacity:0.56"/>
	<stop  offset="1" style="stop-color:#B1B3B6;stop-opacity:0.29"/>
</linearGradient>
<path class="st0" d="M20.6,12.7C16,13,7.7,14.6,0.3,17.5c0,0.8,0,1.7,0,2.5c6.3-2.5,13.5-4.2,20.3-4.8
	C20.6,12.7,20.6,15.2,20.6,12.7z"/>
<g>
	<polygon class="st1" points="19.8,5.5 25.4,13.9 18.9,13.9 21.2,10.6 18.5,6.7 	"/>
	<polygon class="st1" points="19.8,22.5 25.4,13.9 18.9,13.9 21.2,17.3 18.5,21.3 	"/>
</g>
<g>
	<path class="st2" d="M8.3,13.4l1.9-6.9l1.8,6c0.9-0.2,1.7-0.4,2.6-0.5L11,0.1H9.5L5.4,14.2C6.4,13.9,7.3,13.6,8.3,13.4z"/>
	<path class="st2" d="M3.6,20.4l-1.1,3.8h2.8l1.3-4.8C5.5,19.8,4.5,20.1,3.6,20.4z"/>
	<path class="st2" d="M13.5,17.8l1.9,6.5h2.7l-2-6.9C15.3,17.5,14.4,17.6,13.5,17.8z"/>
</g>
</svg>
