<?xml version="1.0" encoding="utf-8"?>
<!-- Generator: Adobe Illustrator 21.0.0, SVG Export Plug-In . SVG Version: 6.00 Build 0)  -->
<svg version="1.1" id="Layer_1" xmlns="http://www.w3.org/2000/svg" xmlns:xlink="http://www.w3.org/1999/xlink" x="0px" y="0px"
	 viewBox="0 0 151.3 21" style="enable-background:new 0 0 151.3 21;" xml:space="preserve">
<style type="text/css">
	.st0{fill:#18384F;}
	.st1{fill:#FFFFFF;}
	.st2{fill:url(#SVGID_1_);}
	.st3{fill:#196C95;}
</style>
<title>Asset 2</title>
<g id="Layer_1-2">
	<polygon class="st0" points="19,0.3 17.7,0.3 11.8,20.5 14.1,20.5 18.3,5.6 22.7,20.5 25,20.5 	"/>
	<polygon class="st0" points="38.6,2.4 38.6,0.3 27,0.3 27,20.5 38.6,20.5 38.6,18.4 29.2,18.4 29.2,2.4 	"/>
	<path class="st0" d="M47.8,10.9c0.2-0.1,3.2,0,3.6-0.3c0.5-0.5,0.8-1,1.1-1.6c0.3-0.6,0.4-1.3,0.4-2V5.4c0-0.7-0.1-1.4-0.4-2
		c-0.5-1.2-1.5-2.2-2.7-2.7c-0.6-0.3-1.3-0.4-2-0.4h-6.5v20.2h2.2V11l1.5,0.1l5.9,9.3l0.1,0.1h2.5L47.8,10.9z M48.8,9.7
		c-0.4,0.2-0.8,0.2-1.2,0.2h-4.2V2.4h4.2c0.4,0,0.8,0.1,1.2,0.2c0.3,0.2,0.7,0.4,0.9,0.6c0.3,0.3,0.5,0.6,0.6,0.9
		c0.2,0.4,0.2,0.8,0.2,1.2V7c0,0.4-0.1,0.8-0.2,1.1c-0.2,0.3-0.4,0.7-0.6,0.9C49.5,9.4,49.2,9.6,48.8,9.7L48.8,9.7z"/>
	<path class="st0" d="M67.2,3.1c-0.3-0.6-0.6-1.2-1.1-1.6c-0.5-0.5-1-0.8-1.6-1.1c-0.6-0.3-1.3-0.4-2-0.4h-1.4c-0.7,0-1.4,0.1-2,0.4
		c-1.2,0.5-2.2,1.5-2.7,2.7c-0.3,0.6-0.4,1.3-0.4,2v10.6c0,0.7,0.1,1.4,0.4,2c0.5,1.2,1.5,2.2,2.7,2.7c0.6,0.3,1.3,0.4,2,0.4h1.4
		c0.7,0,1.4-0.1,2-0.4c1.2-0.5,2.2-1.5,2.7-2.7c0.3-0.6,0.4-1.3,0.4-2V5.1C67.6,4.4,67.5,3.7,67.2,3.1z M65.4,5.1v10.6
		c0,0.4-0.1,0.8-0.2,1.2c-0.2,0.3-0.4,0.7-0.6,0.9c-0.3,0.3-0.6,0.5-0.9,0.6c-0.4,0.2-0.8,0.2-1.2,0.2h-1.3c-0.4,0-0.8-0.1-1.2-0.2
		c-0.4-0.2-0.7-0.4-0.9-0.6c-0.3-0.3-0.5-0.6-0.6-0.9c-0.2-0.4-0.2-0.8-0.2-1.1V5.1c0-0.4,0.1-0.8,0.2-1.2c0.1-0.3,0.4-0.7,0.6-0.9
		c0.3-0.3,0.6-0.5,0.9-0.6c0.4-0.2,0.8-0.2,1.2-0.2h1.2c0.4,0,0.8,0.1,1.2,0.2c0.7,0.3,1.3,0.9,1.6,1.6C65.3,4.3,65.4,4.7,65.4,5.1
		L65.4,5.1z"/>
	<path class="st0" d="M82.3,12.9c-0.3-0.6-0.6-1.1-1.1-1.6c-0.5-0.4-1-0.8-1.6-1.1c-0.6-0.3-1.2-0.6-1.7-0.8l-1.7-0.7
		c-0.5-0.2-1-0.5-1.5-0.8c-0.4-0.3-0.7-0.6-1-1c-0.3-0.5-0.4-1-0.4-1.5V5.1c0-0.4,0.1-0.8,0.2-1.2C73.7,3.6,74,3.3,74.2,3
		c0.3-0.3,0.6-0.5,0.9-0.6c0.4-0.2,0.8-0.2,1.2-0.2h1.1c0.4,0,0.8,0.1,1.2,0.2c0.7,0.3,1.3,0.9,1.6,1.6c0.2,0.4,0.2,0.8,0.2,1.2v1
		l2.2-0.4V5.1c0-0.7-0.1-1.4-0.4-2c-0.3-0.6-0.6-1.2-1.1-1.6c-0.5-0.4-1-0.8-1.6-1.1c-0.6-0.3-1.3-0.4-2-0.4h-1.2
		c-0.7,0-1.4,0.1-2,0.4c-1.2,0.5-2.2,1.5-2.7,2.7c-0.3,0.6-0.4,1.3-0.4,2v0.4c0,0.8,0.1,1.5,0.4,2.2c0.3,0.6,0.6,1.1,1.1,1.5
		c0.5,0.4,1,0.7,1.6,1c0.6,0.3,1.1,0.5,1.7,0.7l1.7,0.7c0.5,0.2,1,0.5,1.4,0.8c0.4,0.3,0.7,0.7,1,1.1c0.3,0.5,0.4,1,0.4,1.6v0.6
		c0,0.4-0.1,0.8-0.2,1.2c-0.2,0.4-0.4,0.7-0.7,1c-0.3,0.3-0.6,0.5-1,0.6c-0.4,0.2-0.8,0.2-1.2,0.2h-1.2c-0.4,0-0.8-0.1-1.2-0.2
		c-0.4-0.1-0.7-0.4-1-0.6c-0.3-0.3-0.5-0.6-0.7-1c-0.2-0.4-0.3-0.8-0.2-1.1v-1.3l-2.2,0.4v1c0,0.7,0.1,1.4,0.4,2
		c0.6,1.2,1.6,2.2,2.8,2.7c0.6,0.3,1.3,0.4,2,0.4h1.4c0.7,0,1.4-0.1,2-0.4c1.2-0.5,2.2-1.5,2.8-2.7c0.3-0.6,0.4-1.3,0.4-2v-0.6
		C82.8,14.4,82.6,13.6,82.3,12.9z"/>
	<path class="st0" d="M97.3,3.4c-0.5-1.2-1.5-2.2-2.7-2.7c-0.6-0.3-1.3-0.4-2-0.4h-6.5v20.6h2.2V10.4c0,0,7.6,0.1,7.9-0.2
		c0.5-0.5,0.8-1,1.1-1.6c0.3-0.8,0.4-1.6,0.4-2.5V5.4C97.7,4.7,97.6,4,97.3,3.4z M93.7,9.3c-0.4,0.2-0.8,0.2-1.2,0.2h-4.2V2.4h4.2
		c0.4,0,0.8,0.1,1.2,0.2c0.4,0.2,0.7,0.4,0.9,0.6c0.3,0.3,0.5,0.6,0.6,0.9c0.2,0.4,0.2,0.8,0.2,1.2v0.8c0,0.6-0.1,1.1-0.2,1.6
		c-0.2,0.4-0.4,0.7-0.6,0.9C94.4,8.9,94.1,9.2,93.7,9.3z M95.3,10.1c-0.1,0-0.2-0.1-0.3-0.1h1C95.8,10.1,95.5,10.2,95.3,10.1z"/>
	<path class="st0" d="M125.1,6.2v-1c0-0.7-0.1-1.4-0.4-2c-0.3-0.6-0.6-1.1-1.1-1.6c-0.5-0.4-1-0.8-1.6-1c-0.6-0.3-1.3-0.4-2-0.4
		h-1.4c-0.7,0-1.4,0.1-2,0.4c-1.2,0.5-2.2,1.5-2.7,2.7c-0.3,0.6-0.4,1.3-0.4,2v10.6c0,0.7,0.1,1.4,0.4,2c0.5,1.2,1.5,2.2,2.7,2.7
		c0.6,0.3,1.3,0.4,2,0.4h1.4c0.7,0,1.4-0.1,2-0.4c0.6-0.3,1.1-0.6,1.6-1.1c0.5-0.5,0.8-1,1.1-1.6c0.3-0.6,0.4-1.3,0.4-2v-1l-2.2-0.4
		v1.3c0,0.4-0.1,0.8-0.2,1.2c-0.2,0.4-0.4,0.7-0.7,1c-0.3,0.3-0.6,0.5-0.9,0.6c-0.4,0.2-0.8,0.2-1.2,0.2h-1.2
		c-0.4,0-0.8-0.1-1.2-0.2c-0.4-0.2-0.7-0.4-0.9-0.6c-0.3-0.3-0.5-0.6-0.6-1c-0.2-0.4-0.2-0.8-0.2-1.1V5.2c0-0.4,0.1-0.8,0.2-1.2
		c0.1-0.4,0.4-0.7,0.6-0.9c0.3-0.3,0.6-0.5,0.9-0.6c0.4-0.2,0.8-0.2,1.2-0.2h1.3c0.4,0,0.8,0.1,1.2,0.2c0.7,0.3,1.3,0.9,1.6,1.6
		c0.2,0.4,0.2,0.8,0.2,1.2v1.3L125.1,6.2z"/>
	<polygon class="st0" points="104.8,0.4 103.6,0.4 97.7,20.7 100,20.7 104.2,5.8 108.5,20.7 110.8,20.7 	"/>
	<polygon class="st0" points="140.2,2.6 140.2,0.4 128.7,0.4 128.7,20.7 140.2,20.7 140.2,18.5 130.9,18.5 130.9,2.6 	"/>
	<path class="st1" d="M0.5,17.6l-0.5-4c49.5-5.9,93.4-5.2,141.5-3.8l-0.1,4C93.4,12.4,49.7,11.7,0.5,17.6z"/>
	
		<linearGradient id="SVGID_1_" gradientUnits="userSpaceOnUse" x1="1.8515" y1="7.7395" x2="143.2574" y2="7.7395" gradientTransform="matrix(1.01 0 0 -1 -0.16 20.97)">
		<stop  offset="9.280507e-05" style="stop-color:#B1B3B6;stop-opacity:0"/>
		<stop  offset="1.000000e-02" style="stop-color:#B1B3B6;stop-opacity:0.1"/>
		<stop  offset="3.990298e-02" style="stop-color:#B1B3B6;stop-opacity:0.23"/>
		<stop  offset="6.000000e-02" style="stop-color:#B1B3B6;stop-opacity:0.35"/>
		<stop  offset="9.000000e-02" style="stop-color:#B1B3B6;stop-opacity:0.44"/>
		<stop  offset="0.1298" style="stop-color:#B1B3B6;stop-opacity:0.51"/>
		<stop  offset="0.1596" style="stop-color:#B1B3B6;stop-opacity:0.56"/>
		<stop  offset="0.22" style="stop-color:#B1B3B6;stop-opacity:0.59"/>
		<stop  offset="0.32" style="stop-color:#B1B3B6;stop-opacity:0.6"/>
		<stop  offset="0.5198" style="stop-color:#B1B3B6;stop-opacity:0.71"/>
		<stop  offset="0.8" style="stop-color:#B1B3B6;stop-opacity:0.85"/>
		<stop  offset="0.9598" style="stop-color:#B1B3B6;stop-opacity:0.9"/>
		<stop  offset="0.9699" style="stop-color:#B1B3B6;stop-opacity:0.89"/>
		<stop  offset="0.98" style="stop-color:#B1B3B6;stop-opacity:0.87"/>
		<stop  offset="0.9893" style="stop-color:#B1B3B6;stop-opacity:0.56"/>
		<stop  offset="1" style="stop-color:#B1B3B6;stop-opacity:0.29"/>
	</linearGradient>
	<path class="st2" d="M2,16.6l-0.2-2c49.9-5.9,94.2-5.2,142.8-3.8l-0.1,2C95.9,11.4,51.7,10.7,2,16.6z"/>
	<polygon class="st3" points="146.1,3.8 151.3,11.7 145.3,11.7 147.5,8.6 145,5 	"/>
	<polygon class="st3" points="146.1,19.6 151.3,11.7 145.3,11.7 147.5,14.8 145,18.4 	"/>
</g>
</svg>
