<?xml version="1.0" encoding="utf-8"?>
<!-- Generator: Adobe Illustrator 21.0.0, SVG Export Plug-In . SVG Version: 6.00 Build 0)  -->
<svg version="1.1" id="Layer_1" xmlns="http://www.w3.org/2000/svg" xmlns:xlink="http://www.w3.org/1999/xlink" x="0px" y="0px"
	 viewBox="0 0 179.4 49.9" style="enable-background:new 0 0 179.4 49.9;" xml:space="preserve">
<style type="text/css">
	.st0{fill:#18384F;}
	.st1{fill:#FFFFFF;}
	.st2{fill:url(#SVGID_1_);}
	.st3{fill:#196C95;}
</style>
<title>Asset 5</title>
<path class="st0" d="M53.3,45.8c0,0.6-0.1,1.1-0.4,1.6c-0.2,0.5-0.6,1-1,1.3c-0.9,0.8-2,1.2-3.2,1.2h-1.3c-1.2,0-2.3-0.4-3.2-1.2
	c-0.4-0.4-0.8-0.8-1-1.3c-0.2-0.5-0.4-1.1-0.4-1.6v-0.7l1.6-0.2v0.9c0,0.4,0.1,0.7,0.2,1.1c0.2,0.3,0.4,0.6,0.7,0.9
	c0.6,0.5,1.3,0.8,2.1,0.8h1.1c0.4,0,0.8-0.1,1.1-0.2c0.4-0.1,0.7-0.3,1-0.6c0.3-0.2,0.5-0.5,0.7-0.9c0.2-0.3,0.2-0.7,0.2-1.1v-0.5
	c0-0.5-0.1-1-0.4-1.5c-0.3-0.4-0.6-0.7-1-1c-0.4-0.3-0.9-0.5-1.4-0.7l-1.6-0.6c-0.5-0.2-1.1-0.4-1.6-0.6c-0.5-0.2-1-0.5-1.4-0.9
	c-0.4-0.3-0.8-0.8-1-1.3c-0.2-0.6-0.4-1.2-0.3-1.8v-0.3c0-0.6,0.1-1.2,0.4-1.7c0.2-0.5,0.5-1,1-1.3c0.4-0.4,0.9-0.7,1.4-0.9
	c0.5-0.2,1.1-0.3,1.7-0.3h1.2c1.2,0,2.3,0.4,3.1,1.2c0.4,0.4,0.7,0.8,0.9,1.3c0.2,0.5,0.3,1.1,0.3,1.6v0.4l-1.6,0.2v-0.7
	c0-0.4-0.1-0.7-0.2-1.1c-0.1-0.3-0.4-0.6-0.6-0.9c-0.5-0.5-1.3-0.8-2-0.8h-1c-0.4,0-0.8,0.1-1.1,0.2c-0.3,0.1-0.7,0.3-0.9,0.6
	c-0.3,0.2-0.5,0.5-0.6,0.9c-0.2,0.3-0.2,0.7-0.2,1.1V37c0,0.5,0.1,1,0.4,1.4c0.3,0.4,0.6,0.7,1,1c0.4,0.3,0.9,0.5,1.3,0.6l1.6,0.6
	c0.5,0.2,1.1,0.4,1.6,0.7c0.5,0.2,0.9,0.5,1.4,0.9c0.4,0.4,0.8,0.8,1,1.3c0.3,0.6,0.4,1.2,0.4,1.8L53.3,45.8z"/>
<path class="st0" d="M56.8,49.7v-17h10.1v1.5h-8.5v6.3h6.9v1.5h-6.9v6.3h8.5v1.5L56.8,49.7z"/>
<path class="st0" d="M79.5,47.4c-0.2,0.5-0.5,1-0.9,1.3c-0.4,0.4-0.9,0.7-1.4,0.9c-0.5,0.2-1.1,0.3-1.7,0.3h-1.3
	c-0.6,0-1.2-0.1-1.7-0.3c-0.5-0.2-1-0.5-1.5-0.9c-0.4-0.4-0.7-0.8-0.9-1.3c-0.2-0.5-0.3-1.1-0.3-1.6v-9.1c0-0.6,0.1-1.1,0.4-1.6
	c0.2-0.5,0.5-0.9,0.9-1.3c0.4-0.4,0.9-0.7,1.4-0.9c0.5-0.2,1.1-0.3,1.7-0.3h1.3c1.2,0,2.3,0.4,3.1,1.2c0.4,0.4,0.7,0.8,1,1.3
	c0.2,0.5,0.4,1.1,0.3,1.6v0.7l-1.6,0.2v-0.9c0-0.4-0.1-0.7-0.3-1c-0.1-0.3-0.4-0.6-0.6-0.9c-0.5-0.5-1.3-0.8-2-0.8h-1.1
	c-0.4,0-0.8,0.1-1.1,0.2c-0.3,0.1-0.7,0.3-0.9,0.6c-0.3,0.2-0.5,0.5-0.6,0.9c-0.2,0.3-0.2,0.7-0.2,1.1v9.1c0,0.4,0.1,0.7,0.2,1.1
	c0.1,0.3,0.4,0.6,0.6,0.9c0.5,0.5,1.3,0.8,2,0.8h1.1c0.4,0,0.8-0.1,1.1-0.2c0.3-0.1,0.6-0.3,0.9-0.6c0.3-0.2,0.5-0.5,0.6-0.9
	c0.2-0.3,0.2-0.7,0.2-1.1v-0.9l1.6,0.2v0.7C79.8,46.3,79.7,46.9,79.5,47.4z"/>
<path class="st0" d="M93,47.4c-0.2,0.5-0.6,1-1,1.3c-0.4,0.4-0.9,0.7-1.4,0.9c-0.5,0.2-1.1,0.3-1.7,0.3h-1.2c-0.6,0-1.2-0.1-1.7-0.3
	c-0.5-0.2-1-0.5-1.4-0.9c-0.4-0.4-0.7-0.8-0.9-1.3c-0.2-0.5-0.3-1.1-0.3-1.6v-13h1.6v13c0,0.4,0.1,0.7,0.2,1.1
	c0.1,0.3,0.4,0.6,0.6,0.9c0.5,0.5,1.3,0.8,2,0.8h1.1c0.4,0,0.8-0.1,1.2-0.2c0.3-0.1,0.6-0.3,0.9-0.6c0.3-0.2,0.5-0.5,0.6-0.9
	c0.2-0.3,0.2-0.7,0.2-1.1v-13h1.6v13C93.4,46.3,93.2,46.9,93,47.4z"/>
<path class="st0" d="M105.7,49.7l-4.9-7.2h-2.2v7.2h-1.6v-17h5.7c1.2,0,2.3,0.4,3.1,1.2c0.4,0.4,0.7,0.8,0.9,1.3
	c0.2,0.5,0.4,1.1,0.3,1.6v1.4c0,0.6-0.1,1.1-0.3,1.6c-0.2,0.5-0.5,1-0.9,1.3c-0.4,0.4-0.9,0.7-1.4,0.9c-0.5,0.2-1.1,0.3-1.7,0.3
	l4.9,7.2L105.7,49.7z M105.5,36.9c0-0.4-0.1-0.7-0.2-1.1c-0.1-0.3-0.4-0.6-0.6-0.9c-0.3-0.3-0.6-0.5-0.9-0.6
	c-0.4-0.1-0.7-0.2-1.1-0.2h-4V41h4c0.4,0,0.8-0.1,1.1-0.2c0.3-0.1,0.6-0.3,0.9-0.6c0.3-0.2,0.5-0.5,0.6-0.9c0.2-0.3,0.2-0.7,0.2-1.1
	V36.9z"/>
<path class="st0" d="M110.6,49.7v-17h1.6v17H110.6z"/>
<path class="st0" d="M120.7,34.2v15.5h-1.6V34.2h-4.3v-1.5H125v1.5L120.7,34.2z"/>
<path class="st0" d="M132.3,41.6v8.1h-1.6v-8.1l-4.7-8.9h1.7l3.7,7.1l3.7-7.1h1.7L132.3,41.6z"/>
<polygon class="st0" points="22.6,0.3 21.1,0.3 14,24.5 16.7,24.5 21.8,6.7 27,24.5 29.7,24.5 "/>
<polygon class="st0" points="46,2.9 46,0.3 32.2,0.3 32.2,24.5 46,24.5 46,22 34.8,22 34.8,2.9 "/>
<path class="st0" d="M57,13c0.3-0.1,3.9,0,4.2-0.4c0.6-0.6,1-1.2,1.3-1.9C62.9,9.9,63,9.1,63,8.3V6.4c0-0.8-0.1-1.7-0.4-2.4
	c-0.6-1.4-1.8-2.6-3.2-3.2c-0.7-0.3-1.5-0.5-2.3-0.5h-7.8v24.2h2.6V13.1l1.8,0.1l7.1,11.2l0.1,0.1h3L57,13z M58.2,11.6
	c-0.4,0.2-0.9,0.3-1.4,0.3h-5v-9h5c0.5,0,0.9,0.1,1.4,0.3c0.4,0.2,0.8,0.4,1.1,0.8c0.3,0.3,0.6,0.7,0.8,1.1c0.2,0.4,0.3,0.9,0.3,1.4
	v1.9c0,0.5-0.1,0.9-0.3,1.4c-0.2,0.4-0.4,0.8-0.8,1.1C59,11.2,58.7,11.4,58.2,11.6L58.2,11.6z"/>
<path class="st0" d="M80.2,3.7c-0.3-0.7-0.7-1.4-1.3-1.9c-0.6-0.6-1.2-1-1.9-1.3C76.3,0.2,75.4,0,74.6,0h-1.7
	c-0.8,0-1.6,0.2-2.4,0.5c-1.5,0.6-2.6,1.8-3.2,3.2c-0.3,0.7-0.5,1.5-0.5,2.4v12.7c0,0.8,0.2,1.6,0.5,2.4c0.6,1.5,1.8,2.6,3.2,3.2
	c0.7,0.3,1.6,0.5,2.4,0.5h1.7c0.8,0,1.6-0.2,2.4-0.5c1.5-0.6,2.6-1.8,3.2-3.2c0.3-0.7,0.5-1.5,0.5-2.4V6.1
	C80.7,5.3,80.5,4.5,80.2,3.7z M78.1,6.1v12.7c0,0.5-0.1,0.9-0.3,1.4c-0.2,0.4-0.5,0.8-0.8,1.1c-0.3,0.3-0.7,0.6-1.1,0.8
	c-0.4,0.2-0.9,0.3-1.4,0.3H73c-0.5,0-0.9-0.1-1.4-0.3c-0.4-0.2-0.8-0.4-1.1-0.8c-0.3-0.3-0.6-0.7-0.8-1.1c-0.2-0.4-0.3-0.9-0.3-1.4
	V6.1c0-0.5,0.1-0.9,0.3-1.4c0.2-0.4,0.4-0.8,0.8-1.1c0.3-0.3,0.7-0.6,1.1-0.8c0.4-0.2,0.9-0.3,1.4-0.3h1.5c0.5,0,0.9,0.1,1.4,0.3
	c0.8,0.4,1.5,1,1.9,1.9C77.9,5.1,78.1,5.6,78.1,6.1z"/>
<path class="st0" d="M98.3,15.4c-0.3-0.7-0.8-1.3-1.3-1.9c-0.6-0.5-1.2-0.9-1.8-1.3c-0.7-0.4-1.4-0.7-2.1-0.9l-2-0.8
	c-0.6-0.2-1.2-0.6-1.7-0.9c-0.5-0.3-0.9-0.7-1.3-1.2c-0.3-0.5-0.5-1.2-0.4-1.8V6.1c0-0.5,0.1-0.9,0.3-1.4c0.2-0.4,0.4-0.8,0.8-1.1
	c0.3-0.3,0.7-0.6,1.1-0.8c0.4-0.2,0.9-0.3,1.4-0.3h1.3c0.5,0,0.9,0.1,1.4,0.3c0.8,0.4,1.5,1,1.9,1.9C95.9,5.1,96,5.6,96,6.1v1.3
	l2.6-0.4V6.1c0-0.8-0.2-1.6-0.5-2.4c-0.3-0.7-0.7-1.4-1.3-1.9c-0.6-0.6-1.2-1-2-1.3C94.2,0.2,93.4,0,92.5,0H91
	c-0.8,0-1.6,0.2-2.4,0.5c-1.5,0.6-2.6,1.8-3.2,3.2c-0.3,0.7-0.5,1.5-0.5,2.4v0.4c0,0.9,0.1,1.8,0.5,2.7c0.3,0.7,0.8,1.3,1.4,1.8
	c0.6,0.5,1.2,0.9,1.8,1.2c0.7,0.3,1.4,0.6,2.1,0.9l2.1,0.8c0.6,0.2,1.2,0.6,1.7,0.9c0.5,0.3,0.9,0.8,1.2,1.3
	c0.3,0.6,0.5,1.2,0.4,1.9v0.7c0,0.5-0.1,0.9-0.3,1.4c-0.2,0.4-0.5,0.8-0.8,1.2c-0.3,0.3-0.7,0.6-1.2,0.8c-0.4,0.2-0.9,0.3-1.4,0.3
	H91c-0.5,0-1-0.1-1.4-0.3c-0.4-0.2-0.8-0.4-1.2-0.8c-0.3-0.3-0.6-0.7-0.8-1.1c-0.2-0.4-0.3-0.9-0.3-1.4v-1.6l-2.6,0.4v1.2
	c0,0.8,0.2,1.6,0.5,2.4c0.7,1.5,1.9,2.6,3.3,3.2c0.8,0.3,1.6,0.5,2.4,0.5h1.7c0.8,0,1.6-0.2,2.4-0.5c1.5-0.6,2.7-1.8,3.3-3.2
	c0.3-0.7,0.5-1.6,0.5-2.4v-0.7C98.8,17.2,98.6,16.2,98.3,15.4z"/>
<path class="st0" d="M116.2,4c-0.6-1.4-1.8-2.6-3.2-3.2c-0.7-0.3-1.6-0.5-2.4-0.5h-7.8v24.6h2.6V12.4c0,0,9,0.1,9.4-0.3
	c0.6-0.6,1-1.2,1.3-1.9c0.3-0.9,0.5-1.9,0.5-2.9V6.4C116.7,5.6,116.5,4.8,116.2,4z M111.9,11.1c-0.4,0.2-0.9,0.3-1.4,0.3h-5V2.9h5
	c0.5,0,0.9,0.1,1.4,0.3c0.4,0.2,0.8,0.4,1.1,0.8c0.3,0.3,0.6,0.7,0.8,1.1c0.2,0.5,0.3,0.9,0.2,1.4v0.9c0,0.7-0.1,1.4-0.3,2
	c-0.2,0.4-0.4,0.8-0.8,1.1C112.6,10.7,112.3,11,111.9,11.1L111.9,11.1z M113.8,12c-0.1,0-0.3-0.1-0.4-0.2l1.2-0.1
	C114.3,12,114.1,12,113.8,12z"/>
<path class="st0" d="M149.4,7.4V6.2c0-0.8-0.2-1.6-0.5-2.4c-0.3-0.7-0.8-1.3-1.3-1.9c-0.6-0.6-1.2-1-1.9-1.3
	c-0.7-0.3-1.5-0.5-2.4-0.5h-1.7c-0.8,0-1.6,0.2-2.4,0.5c-1.5,0.6-2.6,1.8-3.2,3.2c-0.3,0.7-0.5,1.5-0.5,2.4V19
	c0,0.8,0.2,1.6,0.5,2.4c0.6,1.5,1.8,2.6,3.2,3.2c0.7,0.3,1.6,0.5,2.4,0.5h1.7c0.8,0,1.6-0.2,2.4-0.5c0.7-0.3,1.4-0.7,1.9-1.3
	c0.6-0.6,1-1.2,1.3-1.9c0.3-0.7,0.5-1.5,0.5-2.4v-1.2l-2.6-0.4V19c0,0.5-0.1,0.9-0.3,1.4c-0.2,0.4-0.4,0.8-0.8,1.1
	c-0.3,0.3-0.7,0.6-1.1,0.8c-0.4,0.2-0.9,0.3-1.4,0.3h-1.5c-0.5,0-0.9-0.1-1.4-0.3c-0.4-0.2-0.8-0.4-1.1-0.8
	c-0.3-0.3-0.6-0.7-0.8-1.1c-0.2-0.4-0.3-0.9-0.3-1.4V6.2c0-0.5,0.1-0.9,0.3-1.4c0.2-0.4,0.4-0.8,0.8-1.1c0.3-0.3,0.7-0.6,1.2-0.8
	c0.4-0.2,0.9-0.3,1.4-0.3h1.5c0.5,0,0.9,0.1,1.4,0.3c0.8,0.4,1.5,1,1.9,1.9c0.2,0.4,0.3,0.9,0.3,1.4v1.6L149.4,7.4z"/>
<polygon class="st0" points="125.2,0.5 123.7,0.5 116.6,24.7 119.3,24.7 124.4,6.9 129.6,24.7 132.3,24.7 "/>
<polygon class="st0" points="167.5,3 167.5,0.5 153.6,0.5 153.6,24.7 167.5,24.7 167.5,22.2 156.3,22.2 156.3,3 "/>
<path class="st1" d="M0.4,18.9l-0.4-3c59-7.1,111.5-6.3,169-4.6l-0.1,3C111.5,12.6,59.2,11.8,0.4,18.9z"/>
<linearGradient id="SVGID_1_" gradientUnits="userSpaceOnUse" x1="5.099" y1="36.4167" x2="173.969" y2="36.4167" gradientTransform="matrix(1.01 0 0 -1 -3.44 50.94)">
	<stop  offset="9.280507e-05" style="stop-color:#B1B3B6;stop-opacity:0"/>
	<stop  offset="1.000000e-02" style="stop-color:#B1B3B6;stop-opacity:0.1"/>
	<stop  offset="3.990298e-02" style="stop-color:#B1B3B6;stop-opacity:0.23"/>
	<stop  offset="6.000000e-02" style="stop-color:#B1B3B6;stop-opacity:0.35"/>
	<stop  offset="9.000000e-02" style="stop-color:#B1B3B6;stop-opacity:0.44"/>
	<stop  offset="0.1298" style="stop-color:#B1B3B6;stop-opacity:0.51"/>
	<stop  offset="0.1596" style="stop-color:#B1B3B6;stop-opacity:0.56"/>
	<stop  offset="0.22" style="stop-color:#B1B3B6;stop-opacity:0.59"/>
	<stop  offset="0.32" style="stop-color:#B1B3B6;stop-opacity:0.6"/>
	<stop  offset="0.5198" style="stop-color:#B1B3B6;stop-opacity:0.71"/>
	<stop  offset="0.8" style="stop-color:#B1B3B6;stop-opacity:0.85"/>
	<stop  offset="0.9598" style="stop-color:#B1B3B6;stop-opacity:0.9"/>
	<stop  offset="0.9699" style="stop-color:#B1B3B6;stop-opacity:0.89"/>
	<stop  offset="0.98" style="stop-color:#B1B3B6;stop-opacity:0.87"/>
	<stop  offset="0.9893" style="stop-color:#B1B3B6;stop-opacity:0.56"/>
	<stop  offset="1" style="stop-color:#B1B3B6;stop-opacity:0.29"/>
</linearGradient>
<path class="st2" d="M1.9,18.1l-0.2-1.5c59.7-7.1,112.7-6.3,170.9-4.6v1.5C114.4,11.9,61.5,11.1,1.9,18.1z"/>
<polygon class="st3" points="174.3,5 179.4,12.7 173.5,12.7 175.6,9.7 173.1,6.1 "/>
<polygon class="st3" points="174.3,20.5 179.4,12.7 173.5,12.7 175.6,15.8 173.1,19.4 "/>
</svg>
