<?xml version="1.0" encoding="utf-8"?>
<!-- Generator: Adobe Illustrator 21.0.0, SVG Export Plug-In . SVG Version: 6.00 Build 0)  -->
<svg version="1.1" baseProfile="tiny" id="Layer_1" xmlns="http://www.w3.org/2000/svg" xmlns:xlink="http://www.w3.org/1999/xlink"
	 x="0px" y="0px" viewBox="0 0 593 207" xml:space="preserve">
<path fill="#FFFFFF" d="M91.7,78.7c6.5,0,8.5,0.6,11.2,3.3c2.4,2.4,3.3,5.5,3.3,10.4c0,6.9-1.1,9.7-4.9,12.1
	c4.4,1.7,5.9,4.8,5.9,12.6c0,6.5-0.7,9.5-2.9,12.1c-2.4,2.8-5.9,3.9-11.9,3.9h-7.6V78.7H91.7z M93.5,101.3c4.4,0,5.3-1.4,5.3-8.2
	c0-5.8-1.1-7.3-5.3-7.3h-1.1v15.5H93.5z M93.2,126c5.3,0,6.4-1.6,6.4-8.8c0-7.2-1.1-8.8-6.4-8.8h-0.7V126H93.2z"/>
<path fill="#FFFFFF" d="M131.8,78.7v7.1h-10.8v15.2h7.5v7.1h-7.5V126h11.4v7.1h-19V78.7H131.8z"/>
<path fill="#FFFFFF" d="M136.6,78.7h8.2l4.2,20.1l4.2-20.1h8l-8.5,31.8v22.6h-7.6v-22.6L136.6,78.7z"/>
<path fill="#FFFFFF" d="M186.9,119.2c0,6.5-0.2,7.8-1.7,10.2c-1.8,2.8-5.2,4.5-9.1,4.5c-3.8,0-7.3-1.7-9.1-4.5
	c-1.5-2.4-1.7-3.8-1.7-10.2V92.5c0-6.4,0.2-7.8,1.7-10.2c1.8-2.7,5.2-4.4,9.1-4.4c3.8,0,7.3,1.7,9.1,4.4c1.5,2.4,1.7,3.8,1.7,10.2
	V119.2z M179.3,89.4c0-3.1-0.9-4.4-3.2-4.4c-2.2,0-3.2,1.3-3.2,4.4v33c0,3.1,0.9,4.4,3.2,4.4c2.2,0,3.2-1.3,3.2-4.4V89.4z"/>
<path fill="#FFFFFF" d="M217.4,133.1h-7.6l-9-28.5v28.5h-7.6V78.7h6.5l10,32v-32h7.6V133.1z"/>
<path fill="#FFFFFF" d="M232,78.7c5.3,0,7.7,0.7,10,3c2.3,2.2,3.4,5.5,3.4,9.5v29.3c0,4.1-1.1,7.3-3.4,9.5c-2.3,2.3-4.7,3-10,3h-8.1
	V78.7H232z M232.5,126c4.2,0,5.4-1.2,5.4-5.5V91.3c0-4.2-1.3-5.5-5.4-5.5h-1V126H232.5z"/>
<path fill="#FFFFFF" d="M333.3,78.7c6.6,0,9.1,0.8,11.3,3.6c2.3,2.9,2.9,5.7,2.9,12.6c0,7.3-0.7,10-2.9,12.6c-2,2.3-5.3,3.5-9.9,3.5
	h-1.1v22.1h-7.6V78.7H333.3z M334.8,104c4.5,0,5.4-1.5,5.4-9.1c0-7.6-0.9-9.1-5.4-9.1h-1.1V104H334.8z"/>
<path fill="#FFFFFF" d="M357.9,133.1h-7.3l7.4-54.4h9.8l7.1,54.4h-7.4l-1.4-12.2h-6.9L357.9,133.1z M362.7,88.6l-2.6,25.2h5.2
	L362.7,88.6z"/>
<path fill="#FFFFFF" d="M387.8,78.7c6.1,0,8.9,1,11.1,3.8c2,2.5,2.9,6.2,2.9,11.3c0,6.8-0.7,9.2-3.8,13.2l5.3,26H395l-4.4-23.4
	c-1.3,0.2-1.5,0.2-2.7,0.3v23.1h-7.6V78.7H387.8z M389,102.4c2.4,0,3.8-0.6,4.6-2c0.6-1.1,0.7-2.4,0.7-7.3c0-5.9-1.1-7.3-5.3-7.3
	h-1.1v16.6H389z"/>
<path fill="#FFFFFF" d="M415.7,133.1h-7.3l7.4-54.4h9.8l7.1,54.4h-7.4l-1.4-12.2H417L415.7,133.1z M420.5,88.6l-2.6,25.2h5.2
	L420.5,88.6z"/>
<path fill="#FFFFFF" d="M437.3,90.4h7.6v53.1h0v7.1h-7.6V90.4z"/>
<path fill="#FFFFFF" d="M449.4,58.3h7.6v61.9h0v7.1h-7.6V58.3z"/>
<path fill="#FFFFFF" d="M482,78.7v7.1h-10.8v15.2h7.5v7.1h-7.5V126h11.4v7.1h-19V78.7H482z"/>
<path fill="#FFFFFF" d="M487.6,78.7h7.6V126h10.8v7.1h-18.3V78.7z"/>
<path fill="#FFFFFF" d="M294.7,79.7v38.2h-5.8V78.5c-1-0.1-2-0.2-3-0.2c-15.7,0-28.5,12.8-28.5,28.5c0,12.9,8.5,23.8,20.3,27.3V97.3
	h5.8v37.9c0.8,0.1,1.6,0.1,2.5,0.1c15.7,0,28.5-12.8,28.5-28.5C314.4,94.1,306.1,83.4,294.7,79.7z"/>
<rect x="50" y="39" fill="none" stroke="#FFC725" stroke-miterlimit="10" width="495" height="131"/>
<g>
	<rect x="44" y="142" fill="#FFC725" width="12" height="31"/>
	
		<rect x="53.5" y="154.5" transform="matrix(4.486817e-11 -1 1 4.486817e-11 -110.5 229.5)" fill="#FFC725" width="12" height="31"/>
</g>
<g>
	<rect x="538.5" y="35.5" transform="matrix(-1 -8.973679e-11 8.973679e-11 -1 1089 102)" fill="#FFC725" width="12" height="31"/>
	<rect x="529" y="23" transform="matrix(-1.346809e-10 1 -1 -1.346809e-10 573.5 -496.5)" fill="#FFC725" width="12" height="31"/>
</g>
</svg>
