<svg id="Layer_1" data-name="Layer 1" xmlns="http://www.w3.org/2000/svg" viewBox="0 0 600 600"><title>china_power_social_media</title><path d="M0,0V600H600V0ZM407,145.74H386.86l-3.37-16.61h-145V269.81h28.68v-94.5a11.58,11.58,0,0,1,.14-1.32,11.58,11.58,0,0,1-.14-1.32,13,13,0,0,1,12.93-12.92h114A13,13,0,0,1,407,172.67c0,.39-.08.75-.11,1.13v107c0,.25-.06.48-.07.72,0,.4.12.78.12,1.18A13,13,0,0,1,394,295.66H293V387l16.82,3.42v20.13H250.47V390.38L267.12,387V295.66h-41.6a13,13,0,0,1-12.93-12.93V116.21a13,13,0,0,1,12.93-12.93c.34,0,.67.08,1,.11s.67-.11,1-.11h155.9l3.42-16.86H407Z" fill="#ed392a"/><rect x="292.97" y="185.6" width="88.06" height="84.21" fill="#ee4036"/><path d="M100.55,491.14H94.43l-1.62-9.07a16.73,16.73,0,0,0-5.2-3.39,18.57,18.57,0,0,0-7.35-1.32q-10,0-15.36,7.24T59.53,503v1q0,11.14,5.26,18.42a17,17,0,0,0,14.59,7.29,22,22,0,0,0,7.92-1.36A15.28,15.28,0,0,0,92.81,525l1.62-9.07h6.12v11.4a23.92,23.92,0,0,1-8.32,6.36,28.08,28.08,0,0,1-12.85,2.8,25.89,25.89,0,0,1-20.51-9.25q-8-9.24-8-23.24v-.92q0-14.08,7.88-23.31t20.65-9.22a27.71,27.71,0,0,1,12.85,2.84,24.66,24.66,0,0,1,8.32,6.36Z" fill="#fff"/><path d="M106.36,530l7.17-1.23V473.71l-7.17-1.24v-5.59H122.2v27.38a17.49,17.49,0,0,1,6-5.32,16.68,16.68,0,0,1,7.93-1.9q7.65,0,11.88,4.58t4.23,14.09v23.07l7.17,1.23v5.54h-23V530l7.18-1.23V505.62c0-3.93-.85-6.84-2.53-8.72s-4.21-2.81-7.55-2.81a12.73,12.73,0,0,0-6.5,1.69,14.22,14.22,0,0,0-4.82,4.6v28.4l7.18,1.23v5.54h-23Z" fill="#fff"/><path d="M165.74,530l7.17-1.23v-34l-7.17-1.23v-5.6h15.85v40.86l7.17,1.23v5.54h-23Zm15.85-54.28h-8.68v-8.85h8.68Z" fill="#fff"/><path d="M194.09,530l7.17-1.23v-34l-7.17-1.23v-5.6H209l.62,7.09a17.23,17.23,0,0,1,6-5.87,15.85,15.85,0,0,1,8.17-2.1q7.69,0,11.93,4.52t4.22,13.93v23.29l7.18,1.23v5.54h-23V530l7.18-1.23V505.66q0-6.29-2.49-8.93t-7.59-2.64a12.27,12.27,0,0,0-6.63,1.8,13.32,13.32,0,0,0-4.6,4.93v28l7.18,1.23v5.54h-23Z" fill="#fff"/><path d="M284.46,535.55c-.26-1.29-.47-2.45-.62-3.47s-.25-2.06-.3-3.08a21.05,21.05,0,0,1-6.28,5.34,15.94,15.94,0,0,1-8,2.14q-7.44,0-11.31-3.63T254,522.61a11.85,11.85,0,0,1,5.48-10.45q5.49-3.67,15-3.68h8.93v-5.54a8.6,8.6,0,0,0-2.64-6.63q-2.64-2.44-7.35-2.44a18.29,18.29,0,0,0-5.75.83,10.77,10.77,0,0,0-4,2.29l-.93,5h-6.69v-9.24a25.72,25.72,0,0,1,7.88-4.16A31.21,31.21,0,0,1,274,487q8.1,0,13.11,4.14t5,11.84V526c0,.61,0,1.22,0,1.8s.05,1.18.11,1.76l3.52.49v5.54Zm-13.95-6.33a15.44,15.44,0,0,0,7.88-2.07,12.88,12.88,0,0,0,5.1-5v-7.83h-9.24q-5.33,0-8.43,2.46a7.43,7.43,0,0,0-3.11,6,5.92,5.92,0,0,0,1.94,4.77Q266.59,529.22,270.51,529.22Z" fill="#fff"/><path d="M331.69,471.46q10.26,0,16,5.28t5.7,13.91q0,8.72-5.7,14t-16,5.24h-13.6v18.93l7.18,1.23v5.54h-23V530l7.18-1.23v-50.5l-7.18-1.23v-5.59h29.45Zm-13.6,31.61h13.6q6.53,0,9.75-3.5a12.51,12.51,0,0,0,3.24-8.83,12.73,12.73,0,0,0-3.24-8.89q-3.22-3.57-9.75-3.57h-13.6Z" fill="#fff"/><path d="M353.59,511.3q0-10.56,5.72-17.41T374.85,487q9.86,0,15.61,6.83t5.74,17.43v1q0,10.65-5.72,17.43t-15.54,6.78q-9.9,0-15.63-6.8t-5.72-17.41Zm8.67,1q0,7.58,3.19,12.5a11.49,11.49,0,0,0,18.87,0q3.21-4.93,3.21-12.5v-1a22.55,22.55,0,0,0-3.21-12.46,10.58,10.58,0,0,0-9.47-5,10.45,10.45,0,0,0-9.42,5,22.8,22.8,0,0,0-3.17,12.46Z" fill="#fff"/><path d="M416.52,493.52l-5.46,1,6.21,23.73,1,5.77h.27l1.23-5.77,9.51-30.29h6.95l9.55,30.29,1.37,6.43h.26l1.28-6.43,5.85-23.73-5.54-1v-5.6h18.13v5.6l-4.13.61-12,41.42h-7l-9.25-29-2-8-.26.05-1.85,8-9.07,29h-7l-12-41.42-4.19-.61v-5.6h18.14Z" fill="#fff"/><path d="M489.13,536.48q-10,0-15.83-6.63t-5.87-17.19v-1.93q0-10.17,6.05-16.93T487.81,487q9.58,0,14.55,5.81t4.95,15.5v5.41h-30.9l-.14.22a18.87,18.87,0,0,0,3.48,11.3,11.08,11.08,0,0,0,9.38,4.42,21.69,21.69,0,0,0,7.72-1.26A17.63,17.63,0,0,0,502.6,525l3.39,5.63a20.71,20.71,0,0,1-6.76,4.16A27,27,0,0,1,489.13,536.48Zm-1.32-42.61a9.38,9.38,0,0,0-7.44,3.67,17.39,17.39,0,0,0-3.79,9.22l.09.23h22v-1.15a13.3,13.3,0,0,0-2.73-8.54Q493.18,493.87,487.81,493.87Z" fill="#fff"/><path d="M515.85,493.52v-5.6h14.92l.84,6.92a16.63,16.63,0,0,1,5-5.73,11.61,11.61,0,0,1,6.8-2.07,15.31,15.31,0,0,1,2.1.16,11.26,11.26,0,0,1,1.65.33L546,495.58l-4.93-.26a9.9,9.9,0,0,0-5.76,1.61,10.33,10.33,0,0,0-3.61,4.51v27.34l7.17,1.23v5.54h-23V530l7.17-1.23v-34Z" fill="#fff"/></svg>