<svg id="Layer_1" data-name="Layer 1" xmlns="http://www.w3.org/2000/svg" viewBox="0 0 342.36 50.73"><title>chinapower_white_text_logo</title><rect x="5.56" y="6.41" width="31" height="39.84" fill="#fff"/><path d="M48.19,47.54V98.27h42V47.54ZM78.47,63.72H76.54l-.32-1.59H62.34V75.59h2.74v-9s0-.09,0-.13,0-.08,0-.13a1.24,1.24,0,0,1,1.24-1.23H77.23a1.24,1.24,0,0,1,1.24,1.23s0,.08,0,.11V76.64s0,0,0,.07,0,.08,0,.12a1.24,1.24,0,0,1-1.24,1.23H67.55V86.8l1.61.33v1.92H63.49V87.13l1.59-.33V78.06h-4a1.24,1.24,0,0,1-1.24-1.23V60.89a1.25,1.25,0,0,1,1.24-1.24H76.21L76.54,58h1.93Z" transform="translate(-48.19 -47.54)" fill="#ed392a"/><rect x="19.37" y="19.99" width="8.43" height="8.06" fill="#ed392a"/><path d="M131.47,68h-3.55L127,62.76a9.81,9.81,0,0,0-3-2A10.77,10.77,0,0,0,119.7,60a10.39,10.39,0,0,0-8.91,4.21,17.39,17.39,0,0,0-3.12,10.66v.58a17.83,17.83,0,0,0,3,10.69,9.87,9.87,0,0,0,8.47,4.23,12.93,12.93,0,0,0,4.59-.79,9,9,0,0,0,3.2-1.94l.94-5.26h3.55V89a13.85,13.85,0,0,1-4.83,3.69,16.34,16.34,0,0,1-7.45,1.62A15,15,0,0,1,107.29,89a19.86,19.86,0,0,1-4.65-13.49v-.53q0-8.18,4.57-13.52a15,15,0,0,1,12-5.35,16.09,16.09,0,0,1,7.45,1.64,14.34,14.34,0,0,1,4.83,3.69Z" transform="translate(-48.19 -47.54)" fill="#fff"/><path d="M134.84,90.57l4.16-.72V57.9l-4.16-.71V54H144V69.83a10,10,0,0,1,3.5-3.09,9.67,9.67,0,0,1,4.59-1.1A8.91,8.91,0,0,1,159,68.3q2.44,2.65,2.45,8.17V89.85l4.16.72v3.21H152.28V90.57l4.16-.72V76.42A7.4,7.4,0,0,0,155,71.36a5.59,5.59,0,0,0-4.38-1.63,7.4,7.4,0,0,0-3.76,1,8.22,8.22,0,0,0-2.8,2.67V89.85l4.16.72v3.21H134.84Z" transform="translate(-48.19 -47.54)" fill="#fff"/><path d="M169.29,90.57l4.16-.72V70.11l-4.16-.71V66.15h9.19v23.7l4.16.72v3.21H169.29Zm9.19-31.49h-5V54h5Z" transform="translate(-48.19 -47.54)" fill="#fff"/><path d="M185.73,90.57l4.16-.72V70.11l-4.16-.71V66.15h8.66l.36,4.11a10,10,0,0,1,3.46-3.4,9.18,9.18,0,0,1,4.73-1.22,9,9,0,0,1,6.92,2.62q2.46,2.63,2.46,8.08V89.85l4.16.72v3.21H203.12V90.57l4.17-.72V76.44c0-2.43-.49-4.16-1.45-5.18a5.78,5.78,0,0,0-4.4-1.53,7.1,7.1,0,0,0-3.85,1,7.56,7.56,0,0,0-2.66,2.86V89.85l4.16.72v3.21H185.73Z" transform="translate(-48.19 -47.54)" fill="#fff"/><path d="M238.16,93.78c-.15-.74-.27-1.42-.36-2s-.14-1.19-.18-1.79a12.07,12.07,0,0,1-3.64,3.1,9.21,9.21,0,0,1-4.66,1.24q-4.31,0-6.56-2.11a7.72,7.72,0,0,1-2.25-5.93,6.88,6.88,0,0,1,3.18-6.07q3.18-2.13,8.72-2.13h5.19V74.86A5,5,0,0,0,236.07,71a6.05,6.05,0,0,0-4.27-1.42,10.24,10.24,0,0,0-3.33.49,6.29,6.29,0,0,0-2.34,1.32l-.53,2.92h-3.89V69a15,15,0,0,1,4.58-2.41,17.85,17.85,0,0,1,5.82-.91,11.58,11.58,0,0,1,7.61,2.4,8.4,8.4,0,0,1,2.91,6.87V88.22c0,.36,0,.7,0,1s0,.69.07,1l2,.28v3.21Zm-8.1-3.67a9,9,0,0,0,4.58-1.2,7.43,7.43,0,0,0,3-2.89V81.48h-5.36a7.61,7.61,0,0,0-4.89,1.43,4.3,4.3,0,0,0-1.81,3.47,3.44,3.44,0,0,0,1.13,2.77A5.12,5.12,0,0,0,230.06,90.11Z" transform="translate(-48.19 -47.54)" fill="#fff"/><path d="M265.56,56.6q6,0,9.26,3.07a10.49,10.49,0,0,1,3.31,8.07,10.46,10.46,0,0,1-3.31,8.09q-3.31,3-9.26,3h-7.89v11l4.16.72v3.21H248.48V90.57l4.16-.72V60.56l-4.16-.71V56.6h17.08Zm-7.89,18.34h7.89q3.78,0,5.66-2a7.27,7.27,0,0,0,1.88-5.12,7.4,7.4,0,0,0-1.88-5.16q-1.87-2.07-5.66-2.07h-7.89Z" transform="translate(-48.19 -47.54)" fill="#fff"/><path d="M278.26,79.71a15.25,15.25,0,0,1,3.32-10.1,12.28,12.28,0,0,1,18.07,0A15.17,15.17,0,0,1,303,79.71v.57a15.09,15.09,0,0,1-3.32,10.11,12.35,12.35,0,0,1-18.08,0,15.17,15.17,0,0,1-3.32-10.1Zm5,.57a13.08,13.08,0,0,0,1.86,7.25,6.66,6.66,0,0,0,10.94,0A13.08,13.08,0,0,0,298,80.28v-.57a13.06,13.06,0,0,0-1.86-7.22,6.64,6.64,0,0,0-11,0,13.23,13.23,0,0,0-1.84,7.22Z" transform="translate(-48.19 -47.54)" fill="#fff"/><path d="M314.77,69.4l-3.16.56,3.6,13.76.58,3.35H316l.71-3.35,5.52-17.57h4l5.54,17.57.8,3.73h.15l.74-3.73L336.84,70l-3.22-.56V66.15h10.52V69.4l-2.4.35-7,24h-4.06L325.34,77l-1.14-4.65-.16,0L323,77l-5.26,16.82h-4.06l-7-24-2.43-.35V66.15h10.52Z" transform="translate(-48.19 -47.54)" fill="#fff"/><path d="M356.89,94.32a11.68,11.68,0,0,1-9.18-3.84,14.48,14.48,0,0,1-3.41-10V79.38a14.19,14.19,0,0,1,3.51-9.82,10.86,10.86,0,0,1,8.32-3.92c3.71,0,6.52,1.13,8.44,3.37a13.43,13.43,0,0,1,2.87,9v3.14H349.51l-.07.13a10.93,10.93,0,0,0,2,6.55,6.44,6.44,0,0,0,5.44,2.57,12.58,12.58,0,0,0,4.49-.73,10.31,10.31,0,0,0,3.33-2l2,3.26a11.92,11.92,0,0,1-3.92,2.42A15.76,15.76,0,0,1,356.89,94.32Zm-.76-24.72a5.45,5.45,0,0,0-4.32,2.13,10.1,10.1,0,0,0-2.19,5.35l.05.13h12.74v-.66a7.75,7.75,0,0,0-1.58-5A5.65,5.65,0,0,0,356.13,69.6Z" transform="translate(-48.19 -47.54)" fill="#fff"/><path d="M372.4,69.4V66.15h8.65l.49,4a9.64,9.64,0,0,1,2.9-3.32,6.7,6.7,0,0,1,3.94-1.2,8.42,8.42,0,0,1,1.21.09,8,8,0,0,1,1,.19l-.66,4.68L387,70.44a5.7,5.7,0,0,0-3.35.94A6,6,0,0,0,381.59,74V89.85l4.16.72v3.21H372.4V90.57l4.16-.72V70.11Z" transform="translate(-48.19 -47.54)" fill="#fff"/></svg>