<svg xmlns="http://www.w3.org/2000/svg" viewBox="0 0 190.77 125.78"><title>Asset 2</title><g id="Layer_2" data-name="Layer 2"><g id="Layer_1-2" data-name="Layer 1"><path d="M173.53,69.14A17.24,17.24,0,1,1,190.77,51.9,17.27,17.27,0,0,1,173.53,69.14Zm0-26.48a9.24,9.24,0,1,0,9.24,9.24A9.26,9.26,0,0,0,173.53,42.66Z" fill="#63c5b8"/><path d="M2.43,28.92V.2H12.87A15.64,15.64,0,0,1,19,1.33a12.71,12.71,0,0,1,4.43,3.08A12.59,12.59,0,0,1,26.13,9,17.19,17.19,0,0,1,27,14.52a16.78,16.78,0,0,1-1,5.92A12.57,12.57,0,0,1,23.18,25a12.8,12.8,0,0,1-4.47,2.92,15.94,15.94,0,0,1-5.84,1Zm19-14.4a12.11,12.11,0,0,0-.57-3.8,8.56,8.56,0,0,0-1.65-3,7.53,7.53,0,0,0-2.69-1.94,9.27,9.27,0,0,0-3.62-.68H8V24h4.86a8.85,8.85,0,0,0,3.66-.72,7.66,7.66,0,0,0,2.67-2,8.82,8.82,0,0,0,1.63-3A12,12,0,0,0,21.4,14.52Z" fill="#36605a"/><path d="M51.33,24v4.9H31.39V.2H51V5.1H37V12H49.06v4.53H37V24Z" fill="#36605a"/><path d="M55.7,28.92V.2H75V5.1H61.28v7.4h11.4V17H61.28V28.92Z" fill="#36605a"/><path d="M98.85,24v4.9H78.91V.2H98.48V5.1h-14V12H96.58v4.53H84.49V24Z" fill="#36605a"/><path d="M108.8,10.52v18.4h-5.58V.2h4.32l15,18.85V.24h5.58V28.92h-4.53Z" fill="#36605a"/><path d="M151.18,7.72a7.37,7.37,0,0,0-1-.76,11.72,11.72,0,0,0-1.82-1A15,15,0,0,0,146,5.22a10,10,0,0,0-2.55-.33,5.75,5.75,0,0,0-3.44.85,2.8,2.8,0,0,0-1.13,2.39,2.49,2.49,0,0,0,.42,1.48,3.71,3.71,0,0,0,1.24,1,10.8,10.8,0,0,0,2,.81c.82.24,1.77.5,2.85.76,1.4.38,2.67.79,3.82,1.22A10.34,10.34,0,0,1,152.17,15,6.68,6.68,0,0,1,154,17.37a7.77,7.77,0,0,1,.65,3.34,8.31,8.31,0,0,1-.87,3.94,7.25,7.25,0,0,1-2.35,2.65,10.21,10.21,0,0,1-3.39,1.48,17.11,17.11,0,0,1-4,.46,21.59,21.59,0,0,1-6.39-1A19.71,19.71,0,0,1,132,25.52l2.47-4.81a7.86,7.86,0,0,0,1.31.95A19.31,19.31,0,0,0,138,22.83a17.53,17.53,0,0,0,2.87,1,12.94,12.94,0,0,0,3.23.41c3.08,0,4.61-1,4.61-3a2.4,2.4,0,0,0-.52-1.57,4.56,4.56,0,0,0-1.5-1.14,14.59,14.59,0,0,0-2.34-.89l-3.08-.89a25.16,25.16,0,0,1-3.58-1.23A9.12,9.12,0,0,1,135.17,14a5.78,5.78,0,0,1-1.52-2.1A7.19,7.19,0,0,1,133.14,9,8.88,8.88,0,0,1,134,5.14a7.73,7.73,0,0,1,2.25-2.83A10,10,0,0,1,139.53.59,13.85,13.85,0,0,1,143.62,0a15.94,15.94,0,0,1,5.58,1,20.35,20.35,0,0,1,4.45,2.25Z" fill="#36605a"/><path d="M178.44,24v4.9H158.5V.2h19.58V5.1h-14V12h12.1v4.53h-12.1V24Z" fill="#36605a"/><path d="M7.11,104.87s7.23,7.76,17.35,7.76c8,0,13.8-4.85,13.8-11.43,0-8.08-7.43-11.85-16.38-11.85H16.6l-3.13-7.11,14-16.6A70.49,70.49,0,0,1,33,59.81V59.6a54.29,54.29,0,0,1-6.79.32H3.34V48H50.12v8.73L31.36,78.35c10.57,1.51,20.92,9.06,20.92,22.32,0,13-9.92,25.11-26.95,25.11A35.38,35.38,0,0,1,0,115.54Z" fill="#008e9d"/><path d="M59.52,89.45c0-20,11.54-42.78,35.25-42.78,9.7,0,15.63,3.23,15.63,3.23l-4.1,12a27.28,27.28,0,0,0-10.78-2.37c-12.07,0-18.43,10-20.37,20.48h.22c2.69-3.13,8.84-5.39,14.33-5.39,15.09,0,24.58,11.75,24.58,25.55,0,14.22-10,25.65-25.22,25.65C73.11,125.78,59.52,112.52,59.52,89.45Zm41,10.68c0-7.77-4.85-14.12-14-14.12C79.57,86,74,89.56,74,94.3c0,9.6,7,18.76,15.09,18.76C96.17,113.06,100.48,107.35,100.48,100.13Z" fill="#008e9d"/><path d="M169.64,73.58a18.74,18.74,0,0,1-6.83-1.32,64.67,64.67,0,0,1,1.3,13.86c0,15.08-3,26.94-13.48,26.94s-13.47-11.86-13.47-26.94c0-14.88,3-26.63,13.47-26.63.3,0,.52.1.8.12a19,19,0,0,1-.74-5,18.81,18.81,0,0,1,1.75-7.87c-.6,0-1.18-.09-1.81-.09-20.9,0-27.7,17.46-27.7,39.45s6.8,39.66,27.7,39.66,27.81-17.68,27.81-39.66A79.31,79.31,0,0,0,177.26,72,18.78,18.78,0,0,1,169.64,73.58Z" fill="#008e9d"/></g></g></svg>