<svg xmlns="http://www.w3.org/2000/svg" viewBox="0 0 482.39 65.85"><title>Asset 1</title><g id="Layer_2" data-name="Layer 2"><g id="Layer_1-2" data-name="Layer 1"><path d="M469.84,25.1a12.55,12.55,0,1,1,12.55-12.55A12.56,12.56,0,0,1,469.84,25.1Zm0-19.1a6.55,6.55,0,1,0,6.55,6.55A6.56,6.56,0,0,0,469.84,6Z" fill="#63c5b8"/><path d="M0,64.92V9.68H20.07a30.07,30.07,0,0,1,11.87,2.18A23.89,23.89,0,0,1,45.59,26.52a33,33,0,0,1,1.71,10.7,32.38,32.38,0,0,1-1.9,11.4,24.36,24.36,0,0,1-5.49,8.71,24.69,24.69,0,0,1-8.6,5.6,30.37,30.37,0,0,1-11.24,2Zm36.49-27.7a23.64,23.64,0,0,0-1.09-7.31,16.46,16.46,0,0,0-3.19-5.76A14.2,14.2,0,0,0,27,20.42a17.4,17.4,0,0,0-7-1.33H10.73V55.5h9.34a16.7,16.7,0,0,0,7-1.4,14.35,14.35,0,0,0,5.14-3.85,17.21,17.21,0,0,0,3.15-5.79A23.52,23.52,0,0,0,36.49,37.22Z" fill="#63c5b8"/><path d="M94.06,55.5v9.42H55.7V9.68H93.36v9.41H66.44V32.4H89.7v8.71H66.44V55.5Z" fill="#63c5b8"/><path d="M102.46,64.92V9.68h37.11v9.41H113.2V33.33h21.94V42H113.2V64.92Z" fill="#63c5b8"/><path d="M185.47,55.5v9.42H147.12V9.68h37.65v9.41H157.85V32.4h23.26v8.71H157.85V55.5Z" fill="#63c5b8"/><path d="M204.61,29.52v35.4H193.87V9.68h8.33L231,45.93V9.76h10.74V64.92H233Z" fill="#63c5b8"/><path d="M286.14,24.15a13,13,0,0,0-2-1.48,25,25,0,0,0-3.5-1.83,32.08,32.08,0,0,0-4.47-1.52,19.84,19.84,0,0,0-4.91-.62c-2.95,0-5.16.55-6.61,1.64a5.4,5.4,0,0,0-2.18,4.59,4.68,4.68,0,0,0,.82,2.84,7,7,0,0,0,2.37,2,20.31,20.31,0,0,0,3.93,1.56c1.58.46,3.41,1,5.48,1.47q4.05,1.09,7.36,2.34a20.09,20.09,0,0,1,5.6,3.11,12.9,12.9,0,0,1,3.54,4.48,14.77,14.77,0,0,1,1.25,6.41,15.93,15.93,0,0,1-1.68,7.59,14,14,0,0,1-4.51,5.09,19.39,19.39,0,0,1-6.53,2.84,32.7,32.7,0,0,1-7.75.9,41.42,41.42,0,0,1-12.29-1.87,37.74,37.74,0,0,1-10.89-5.29l4.74-9.26A14.8,14.8,0,0,0,256.46,51a38.75,38.75,0,0,0,4.32,2.26,33,33,0,0,0,5.52,1.9,25,25,0,0,0,6.23.78q8.87,0,8.87-5.68a4.67,4.67,0,0,0-1-3A8.66,8.66,0,0,0,277.51,45,28.19,28.19,0,0,0,273,43.29l-5.92-1.71a50.09,50.09,0,0,1-6.88-2.38,17.9,17.9,0,0,1-4.87-3,11.28,11.28,0,0,1-2.91-4.05,13.94,13.94,0,0,1-1-5.48A17.15,17.15,0,0,1,253,19.17a15.21,15.21,0,0,1,4.32-5.45,19.52,19.52,0,0,1,6.42-3.3,26.52,26.52,0,0,1,7.86-1.13,30.48,30.48,0,0,1,10.73,1.83,40,40,0,0,1,8.56,4.32Z" fill="#63c5b8"/><path d="M339.28,55.5v9.42H300.93V9.68h37.65v9.41H311.66V32.4h23.26v8.71H311.66V55.5Z" fill="#63c5b8"/><path d="M349.78,50.77s5.21,5.59,12.52,5.59c5.75,0,9.95-3.5,9.95-8.24,0-5.83-5.36-8.55-11.82-8.55h-3.81l-2.25-5.13,10.11-12a48.87,48.87,0,0,1,4-4.2v-.15a39.31,39.31,0,0,1-4.9.23H347.06V9.71H380.8V16L367.27,31.64c7.63,1.08,15.09,6.53,15.09,16.09s-7.15,18.12-19.44,18.12a25.52,25.52,0,0,1-18.27-7.39Z" fill="#fff"/><path d="M387.59,39.64c0-14.46,8.32-30.86,25.43-30.86a25.38,25.38,0,0,1,11.27,2.33l-3,8.63A19.69,19.69,0,0,0,413.56,18c-8.71,0-13.29,7.23-14.7,14.77H399c2-2.25,6.38-3.88,10.34-3.88,10.89,0,17.73,8.47,17.73,18.42,0,10.27-7.23,18.51-18.19,18.51C397.39,65.85,387.59,56.29,387.59,39.64Zm29.55,7.7c0-5.6-3.5-10.18-10.11-10.18-5,0-9,2.56-9,6,0,6.93,5.06,13.53,10.89,13.53C414,56.67,417.14,52.55,417.14,47.34Z" fill="#fff"/><path d="M467,28.19a13.42,13.42,0,0,1-4.92-1,47.32,47.32,0,0,1,.93,10c0,10.88-2.18,19.43-9.72,19.43s-9.72-8.55-9.72-19.43S445.78,18,453.32,18a5.4,5.4,0,0,1,.58.09,13.45,13.45,0,0,1-.54-3.6,13.45,13.45,0,0,1,1.27-5.67c-.44,0-.86-.07-1.31-.07-15.08,0-20,12.59-20,28.46s4.9,28.61,20,28.61,20.06-12.75,20.06-28.61A56.85,56.85,0,0,0,472.53,27,13.61,13.61,0,0,1,467,28.19Z" fill="#fff"/></g></g></svg>