<svg xmlns="http://www.w3.org/2000/svg" viewBox="0 0 482.39 65.85"><defs><style>.cls-1{fill:none;stroke:#63c5b8;stroke-miterlimit:10;stroke-width:6px;}.cls-2{fill:#36605a;}.cls-3{fill:#008e9d;}</style></defs><title>Asset 1</title><g id="Layer_2" data-name="Layer 2"><g id="Layer_1-2" data-name="Layer 1"><circle class="cls-1" cx="469.84" cy="12.55" r="9.55"/><path class="cls-2" d="M0,64.92V9.68H20.07a30,30,0,0,1,11.87,2.18A23.85,23.85,0,0,1,45.59,26.52a33,33,0,0,1,1.71,10.7,32.35,32.35,0,0,1-1.91,11.4,24.33,24.33,0,0,1-5.49,8.72,24.66,24.66,0,0,1-8.6,5.6,30.32,30.32,0,0,1-11.24,2Zm36.49-27.7a23.53,23.53,0,0,0-1.09-7.31,16.43,16.43,0,0,0-3.19-5.76A14.2,14.2,0,0,0,27,20.42a17.45,17.45,0,0,0-7-1.32H10.73V55.5h9.34a16.8,16.8,0,0,0,7-1.4,14.39,14.39,0,0,0,5.13-3.85,17.18,17.18,0,0,0,3.15-5.79A23.3,23.3,0,0,0,36.49,37.22Z"/><path class="cls-2" d="M94.06,55.5v9.41H55.7V9.68H93.36v9.41H66.44v13.3H89.7v8.72H66.44V55.5Z"/><path class="cls-2" d="M102.46,64.92V9.68h37.11v9.41H113.2V33.33h21.94V42H113.2V64.92Z"/><path class="cls-2" d="M185.47,55.5v9.41H147.12V9.68h37.65v9.41H157.85v13.3h23.26v8.72H157.85V55.5Z"/><path class="cls-2" d="M204.61,29.52v35.4H193.87V9.68h8.32L231,45.93V9.76h10.74V64.92H233Z"/><path class="cls-2" d="M286.14,24.15a13.54,13.54,0,0,0-2-1.48,24.36,24.36,0,0,0-3.5-1.83,30.87,30.87,0,0,0-4.47-1.52,19.72,19.72,0,0,0-4.9-.62q-4.44,0-6.61,1.63a5.4,5.4,0,0,0-2.18,4.59,4.71,4.71,0,0,0,.82,2.84,7,7,0,0,0,2.37,2,19.84,19.84,0,0,0,3.93,1.55q2.37.7,5.48,1.48,4,1.09,7.35,2.33a20,20,0,0,1,5.6,3.11,12.93,12.93,0,0,1,3.54,4.48,14.89,14.89,0,0,1,1.24,6.42,16,16,0,0,1-1.67,7.59,14,14,0,0,1-4.51,5.1,19.56,19.56,0,0,1-6.53,2.84,32.89,32.89,0,0,1-7.74.9,41.6,41.6,0,0,1-12.29-1.87,37.88,37.88,0,0,1-10.89-5.29l4.75-9.26A14.79,14.79,0,0,0,256.46,51a38.39,38.39,0,0,0,4.31,2.25,33.3,33.3,0,0,0,5.52,1.91,24.93,24.93,0,0,0,6.22.78q8.87,0,8.87-5.68a4.67,4.67,0,0,0-1-3A8.54,8.54,0,0,0,277.51,45,27.45,27.45,0,0,0,273,43.29l-5.91-1.71a50.44,50.44,0,0,1-6.89-2.37,18.17,18.17,0,0,1-4.86-3,11.28,11.28,0,0,1-2.92-4,14,14,0,0,1-1-5.48A17.16,17.16,0,0,1,253,19.17a15.07,15.07,0,0,1,4.32-5.45,19.48,19.48,0,0,1,6.42-3.31,26.49,26.49,0,0,1,7.86-1.13,30.49,30.49,0,0,1,10.73,1.83,40,40,0,0,1,8.56,4.32Z"/><path class="cls-2" d="M339.28,55.5v9.41H300.93V9.68h37.65v9.41H311.66v13.3h23.26v8.72H311.66V55.5Z"/><path class="cls-3" d="M349.78,50.77s5.21,5.6,12.52,5.6c5.76,0,10-3.5,10-8.24,0-5.83-5.36-8.55-11.82-8.55h-3.81l-2.25-5.13,10.11-12a50.37,50.37,0,0,1,4-4.2V18.1a38.68,38.68,0,0,1-4.9.23H347.06V9.71H380.8V16L367.27,31.64c7.62,1.09,15.09,6.53,15.09,16.1,0,9.41-7.15,18.12-19.44,18.12a25.53,25.53,0,0,1-18.27-7.39Z"/><path class="cls-3" d="M387.59,39.64c0-14.46,8.32-30.87,25.43-30.87a25.34,25.34,0,0,1,11.27,2.33l-3,8.63A19.67,19.67,0,0,0,413.56,18c-8.71,0-13.3,7.23-14.7,14.77H399c1.95-2.26,6.38-3.89,10.34-3.89,10.89,0,17.73,8.47,17.73,18.43,0,10.26-7.23,18.51-18.2,18.51C397.39,65.85,387.59,56.29,387.59,39.64Zm29.55,7.7c0-5.6-3.5-10.19-10.11-10.19-5,0-9,2.57-9,6,0,6.92,5.06,13.53,10.89,13.53C414,56.67,417.14,52.55,417.14,47.34Z"/><path class="cls-3" d="M467,28.19a13.58,13.58,0,0,1-4.93-1,46.82,46.82,0,0,1,.93,10c0,10.88-2.18,19.44-9.72,19.44s-9.72-8.55-9.72-19.44c0-10.73,2.18-19.21,9.72-19.21.21,0,.37.07.58.09a13.54,13.54,0,0,1-.54-3.59,13.56,13.56,0,0,1,1.27-5.67c-.44,0-.85-.07-1.3-.07-15.08,0-20,12.6-20,28.46s4.9,28.61,20,28.61,20.06-12.75,20.06-28.61A57.17,57.17,0,0,0,472.53,27,13.59,13.59,0,0,1,467,28.19Z"/></g></g></svg>