<svg id="Layer_1" data-name="Layer 1" xmlns="http://www.w3.org/2000/svg" viewBox="0 0 614 141.3"><title>MissileDefense_logo_FINAL_light</title><rect width="614" height="141.3" fill="#0a3447"/><path d="M30.6,23.2H44.1l8.8,24.3c1.1,3.2,2.1,6.7,3.2,10.1h.3c1.1-3.4,2-6.9,3.1-10.1l8.6-24.3H81.5V77.9H70.4V57.8c0-5.4,1-13.3,1.6-18.6h-.3l-4.4,13L59.5,73.1H52.7L44.9,52.2l-4.4-13h-.3c.6,5.3,1.6,13.3,1.6,18.6V77.9H30.6Z" fill="#fff"/><path d="M94.5,23.2h12.3V77.9H94.5Z" fill="#fff"/><path d="M116.2,71l7-8.5c3.9,3.4,9,5.7,13.5,5.7,5.1,0,7.6-2,7.6-5.3s-3.1-4.5-7.9-6.5l-7.1-3c-5.6-2.3-11-7-11-14.9,0-9.1,8.1-16.3,19.5-16.3a25.25,25.25,0,0,1,17.6,7.2l-6.3,7.8c-3.6-2.8-7-4.4-11.3-4.4s-7,1.8-7,4.9c0,3.4,3.6,4.5,8.3,6.5l7,2.9c6.6,2.7,10.8,7.1,10.8,14.8,0,9.1-7.6,16.9-20.6,16.9A29.45,29.45,0,0,1,116.2,71Z" fill="#fff"/><path d="M161.4,71l7-8.5c3.9,3.4,9,5.7,13.5,5.7,5.1,0,7.6-2,7.6-5.3s-3.1-4.5-7.9-6.5l-7.1-3c-5.6-2.3-11-7-11-14.9,0-9.1,8.1-16.3,19.5-16.3a25.25,25.25,0,0,1,17.6,7.2l-6.3,7.8c-3.6-2.8-7-4.4-11.3-4.4s-7,1.8-7,4.9c0,3.4,3.6,4.5,8.3,6.5l7,2.9c6.6,2.7,10.8,7.1,10.8,14.8,0,9.1-7.5,16.9-20.6,16.9A29.28,29.28,0,0,1,161.4,71Z" fill="#fff"/><path d="M211.5,23.2h12.3V77.9H211.5Z" fill="#fff"/><path d="M236.8,23.2h12.3V67.5h21.6V77.9h-34V23.2Z" fill="#fff"/><path d="M280.2,23.2h34.2V33.6H292.5v11h18.6V54.9H292.5V67.5h22.7V77.9H280.1V23.2Z" fill="#fff"/><path d="M338.7,28.7H322.1V22.8h40.3v5.9H345.8V77.9h-7V28.7Z" fill="#d1d2d3"/><path d="M372.2,22.8h7V45.9h25.6V22.8h7v55h-7V51.9H379.2V77.8h-7Z" fill="#d1d2d3"/><path d="M426.9,22.8h17.2c11.2,0,19.3,4,19.3,15.4,0,8.6-4.9,13.8-12.4,15.6l14,24h-7.9L443.8,54.6h-10V77.8h-7v-55Zm16.2,26.1c8.6,0,13.3-3.5,13.3-10.7s-4.8-9.8-13.3-9.8h-9.2V48.9Z" fill="#d1d2d3"/><path d="M474.7,22.8h31.7v5.9H481.7V46h20.9v6H481.7V72h25.6v6H474.7Z" fill="#d1d2d3"/><path d="M530.2,22.8h7.9l18.6,55h-7.5L544,61.1H524l-5.3,16.8h-7.1Zm-4.5,32.7h16.5l-2.6-8.4c-2-6.1-3.8-12.2-5.5-18.5h-.3c-1.7,6.4-3.4,12.4-5.5,18.5Z" fill="#d1d2d3"/><path d="M571.3,28.7H554.7V22.8H595v5.9H578.4V77.9h-7V28.7Z" fill="#d1d2d3"/><path d="M114.5,108.9c0-5.7,3.4-9.2,7.9-9.2a6.48,6.48,0,0,1,4.9,2.2l-1.2,1.5a4.77,4.77,0,0,0-3.6-1.7c-3.4,0-5.6,2.8-5.6,7.2s2.1,7.3,5.5,7.3a5.42,5.42,0,0,0,4.1-2l1.2,1.4a6.88,6.88,0,0,1-5.4,2.6C117.8,118.1,114.5,114.7,114.5,108.9Z" fill="#d1d2d3"/><path d="M130.2,115.5l1.4-1.6a7.17,7.17,0,0,0,4.9,2.2c2.3,0,3.7-1.2,3.7-2.9s-1.3-2.4-2.9-3.1l-2.5-1.1c-1.7-.7-3.6-2-3.6-4.6s2.4-4.7,5.6-4.7a7.14,7.14,0,0,1,5.2,2.2l-1.2,1.5a5.85,5.85,0,0,0-4-1.7c-2,0-3.3,1-3.3,2.6s1.5,2.4,2.9,2.9l2.5,1.1c2.1.9,3.7,2.1,3.7,4.7,0,2.8-2.3,5.1-6,5.1A8.56,8.56,0,0,1,130.2,115.5Z" fill="#d1d2d3"/><path d="M147,100h2.2v17.7H147Z" fill="#d1d2d3"/><path d="M153.9,115.5l1.4-1.6a7.17,7.17,0,0,0,4.9,2.2c2.3,0,3.7-1.2,3.7-2.9s-1.3-2.4-2.9-3.1l-2.5-1.1c-1.7-.7-3.6-2-3.6-4.6s2.4-4.7,5.6-4.7a7.14,7.14,0,0,1,5.2,2.2l-1.2,1.5a5.85,5.85,0,0,0-4-1.7c-2,0-3.3,1-3.3,2.6s1.5,2.4,2.9,2.9l2.5,1.1c2.1.9,3.7,2.1,3.7,4.7,0,2.8-2.3,5.1-6,5.1A8.56,8.56,0,0,1,153.9,115.5Z" fill="#d1d2d3"/><path d="M177.2,100h2.7l3.4,9.5c.4,1.2.8,2.5,1.3,3.7h.1c.4-1.2.8-2.5,1.2-3.7l3.4-9.5H192v17.7h-2.1V108c0-1.6.2-3.7.3-5.2h-.1l-1.4,4-3.4,9.2h-1.5l-3.4-9.2-1.4-4h0c.1,1.6.3,3.7.3,5.2v9.8h-2V100Z" fill="#d1d2d3"/><path d="M198,100h2.2v17.7H198Z" fill="#d1d2d3"/><path d="M204.9,115.5l1.4-1.6a7.17,7.17,0,0,0,4.9,2.2c2.3,0,3.7-1.2,3.7-2.9s-1.3-2.4-2.9-3.1l-2.5-1.1c-1.7-.7-3.6-2-3.6-4.6s2.4-4.7,5.6-4.7a7.14,7.14,0,0,1,5.2,2.2l-1.2,1.5a5.85,5.85,0,0,0-4-1.7c-2,0-3.3,1-3.3,2.6s1.5,2.4,2.9,2.9l2.5,1.1c2.1.9,3.7,2.1,3.7,4.7,0,2.8-2.3,5.1-6,5.1A8.56,8.56,0,0,1,204.9,115.5Z" fill="#d1d2d3"/><path d="M220,115.5l1.4-1.6a7.17,7.17,0,0,0,4.9,2.2c2.3,0,3.7-1.2,3.7-2.9s-1.3-2.4-2.9-3.1l-2.5-1.1c-1.7-.7-3.6-2-3.6-4.6s2.4-4.7,5.6-4.7a7.14,7.14,0,0,1,5.2,2.2l-1.2,1.5a5.85,5.85,0,0,0-4-1.7c-2,0-3.3,1-3.3,2.6s1.5,2.4,2.9,2.9l2.5,1.1c2.1.9,3.7,2.1,3.7,4.7,0,2.8-2.3,5.1-6,5.1A8.73,8.73,0,0,1,220,115.5Z" fill="#d1d2d3"/><path d="M236.8,100H239v17.7h-2.2Z" fill="#d1d2d3"/><path d="M245,100h2.2v15.8H255v1.9H245Z" fill="#d1d2d3"/><path d="M259.3,100h10.2v1.9h-8v5.6h6.7v1.9h-6.7v6.4h8.2v1.9H259.2V100Z" fill="#d1d2d3"/><path d="M281.1,100h4.4c5.5,0,8.4,3.2,8.4,8.8s-2.9,9-8.3,9h-4.5Zm4.3,15.9c4.1,0,6.2-2.6,6.2-7.1s-2.1-6.9-6.2-6.9h-2V116h2Z" fill="#d1d2d3"/><path d="M298.8,100H309v1.9h-8v5.6h6.7v1.9H301v6.4h8.2v1.9H298.7V100Z" fill="#d1d2d3"/><path d="M314.2,100h10.2v1.9h-8v6h6.8v1.9h-6.8v8h-2.2Z" fill="#d1d2d3"/><path d="M328.6,100h10.2v1.9h-8v5.6h6.7v1.9h-6.7v6.4H339v1.9H328.5V100Z" fill="#d1d2d3"/><path d="M344,100h2.3l6.4,11.1,1.9,3.7h.1c-.1-1.8-.3-3.8-.3-5.7V100h2.1v17.7h-2.3l-6.4-11.2-1.9-3.7h-.1c.1,1.8.3,3.7.3,5.5v9.3H344Z" fill="#d1d2d3"/><path d="M361.3,115.5l1.4-1.6a7.17,7.17,0,0,0,4.9,2.2c2.3,0,3.7-1.2,3.7-2.9s-1.3-2.4-2.9-3.1l-2.5-1.1c-1.7-.7-3.6-2-3.6-4.6s2.4-4.7,5.6-4.7a7.14,7.14,0,0,1,5.2,2.2l-1.2,1.5a5.85,5.85,0,0,0-4-1.7c-2,0-3.3,1-3.3,2.6s1.5,2.4,2.9,2.9l2.5,1.1c2.1.9,3.7,2.1,3.7,4.7,0,2.8-2.3,5.1-6,5.1A8.56,8.56,0,0,1,361.3,115.5Z" fill="#d1d2d3"/><path d="M378.1,100h10.2v1.9h-8v5.6H387v1.9h-6.7v6.4h8.2v1.9H378V100Z" fill="#d1d2d3"/><path d="M399.9,100H405c4,0,6.7,1.3,6.7,5.2,0,3.7-2.7,5.5-6.5,5.5h-2.9v7h-2.2V100Zm4.9,8.9c3.1,0,4.6-1.1,4.6-3.7s-1.6-3.4-4.7-3.4h-2.5v7.1Z" fill="#d1d2d3"/><path d="M416.3,100h5.5c3.6,0,6.2,1.3,6.2,5a4.81,4.81,0,0,1-4,5l4.5,7.7H426l-4.3-7.5h-3.2v7.5h-2.2Zm5.2,8.4c2.8,0,4.3-1.1,4.3-3.4s-1.5-3.2-4.3-3.2h-3v6.6Z" fill="#d1d2d3"/><path d="M431.8,108.8c0-5.7,3.1-9.1,7.6-9.1s7.6,3.5,7.6,9.1-3.1,9.3-7.6,9.3S431.8,114.5,431.8,108.8Zm12.8,0c0-4.4-2.1-7.1-5.2-7.1s-5.2,2.7-5.2,7.1,2.1,7.3,5.2,7.3S444.6,113.2,444.6,108.8Z" fill="#d1d2d3"/><path d="M449.2,115.2l1.6-1.1a3.39,3.39,0,0,0,3.1,2c1.9,0,2.8-1.1,2.8-3.8V100H459v12.5c0,3.1-1.4,5.5-4.9,5.5A4.9,4.9,0,0,1,449.2,115.2Z" fill="#d1d2d3"/><path d="M464.8,100H475v1.9h-8v5.6h6.7v1.9H467v6.4h8.2v1.9H464.7V100Z" fill="#d1d2d3"/><path d="M479.1,108.9c0-5.7,3.4-9.2,7.9-9.2a6.48,6.48,0,0,1,4.9,2.2l-1.2,1.5a4.77,4.77,0,0,0-3.6-1.7c-3.4,0-5.6,2.8-5.6,7.2s2.1,7.3,5.5,7.3a5.42,5.42,0,0,0,4.1-2l1.2,1.4a6.88,6.88,0,0,1-5.4,2.6C482.5,118.1,479.1,114.7,479.1,108.9Z" fill="#d1d2d3"/><path d="M499.9,101.9h-5.4V100h13v1.9h-5.4v15.8h-2.3V101.9Z" fill="#d1d2d3"/></svg>