<?xml version="1.0" encoding="utf-8"?>
<!-- Generator: Adobe Illustrator 21.0.0, SVG Export Plug-In . SVG Version: 6.00 Build 0)  -->
<svg version="1.1" id="Layer_1" xmlns="http://www.w3.org/2000/svg" xmlns:xlink="http://www.w3.org/1999/xlink" x="0px" y="0px"
	 viewBox="0 0 207 217.8" style="enable-background:new 0 0 207 217.8;" xml:space="preserve">
<style type="text/css">
	.st0{fill:#EDBD61;}
	.st1{opacity:0.93;fill:#EDBD61;enable-background:new    ;}
	.st2{opacity:0.55;fill:#EDBD61;enable-background:new    ;}
	.st3{fill:url(#SVGID_1_);}
	.st4{fill:url(#SVGID_2_);}
	.st5{fill:url(#SVGID_3_);}
	.st6{fill:#163553;}
	.st7{clip-path:url(#SVGID_5_);fill:url(#SVGID_6_);}
	.st8{clip-path:url(#SVGID_8_);fill:url(#SVGID_9_);}
</style>
<circle id="Oval_5_" class="st0" cx="53.7" cy="37.4" r="9"/>
<circle id="Oval_7_" class="st1" cx="54.1" cy="113.3" r="7.7"/>
<circle id="Oval_8_" class="st2" cx="149.2" cy="37.4" r="6"/>
<linearGradient id="SVGID_1_" gradientUnits="userSpaceOnUse" x1="67.6222" y1="-746.2277" x2="138.5867" y2="-770.0104" gradientTransform="matrix(1 0 0 -1 0 -728)">
	<stop  offset="0" style="stop-color:#A0A2A6"/>
	<stop  offset="1" style="stop-color:#A0A2A6;stop-opacity:0.4"/>
</linearGradient>
<path class="st3" d="M141.5,30.6c-4.7-3-9.4-5.1-14.9-6.8c-20-7.2-43.1-5.1-62.3,4.7c0,0-0.4,0-0.4,0.4c0.9,0.9,1.3,2.1,2.1,3l0,0
	c9-4.7,18.8-8.1,29-9.4s20.5,0,30.7,3c5.1,1.7,9.8,3.8,14.5,6.4C140.7,31.5,141.1,31,141.5,30.6z"/>
<linearGradient id="SVGID_2_" gradientUnits="userSpaceOnUse" x1="145.1074" y1="-806.4988" x2="186.7965" y2="-820.469" gradientTransform="matrix(1 0 0 -1 0 -728)">
	<stop  offset="0" style="stop-color:#A0A2A6;stop-opacity:0.3"/>
	<stop  offset="0.5618" style="stop-color:#A0A2A6;stop-opacity:0"/>
</linearGradient>
<path class="st4" d="M171.8,65.6c-3.4-8.1-8.5-15.4-14.5-21.7c-0.4,0.4-0.4,0.9-0.9,0.9c6,6,11.1,13.2,14.9,21.3
	c9,18.8,9.8,41.4,3.4,61C181.6,107.4,180.7,84.8,171.8,65.6z"/>
<linearGradient id="SVGID_3_" gradientUnits="userSpaceOnUse" x1="59.3303" y1="-794.9097" x2="160.696" y2="-828.8842" gradientTransform="matrix(1 0 0 -1 0 -728)">
	<stop  offset="0" style="stop-color:#A0A2A6"/>
	<stop  offset="0.8638" style="stop-color:#A0A2A6;stop-opacity:0"/>
</linearGradient>
<path class="st5" d="M150.9,77.9c-5.5-12.8-16.2-23.5-29.4-28.1s-28.6-3.4-41.4,3.4s-22.2,18.3-26.9,32c-1.7,5.5-2.6,11.1-3,16.6
	c0.9-0.4,2.1-0.4,3.4-0.4c0.4,0,0.4,0,0.9,0c0.4-5.1,1.3-10.2,3-14.9c4.3-12.8,12.8-23.9,24.7-30.3c11.5-6.8,26-8.5,38.8-4.3
	C133.8,55.8,144.9,65.6,150.9,77.9c6,12.8,6.4,27.7,2.1,40.5C156.9,105.7,156.4,90.7,150.9,77.9z"/>
<polygon id="Shape_24_" class="st6" points="124,132.1 116.4,121.4 116.4,198.6 92.9,198.6 92.9,70.3 110,70.3 157.7,138.5 
	164.5,149.2 164.5,71.1 187.6,71.1 187.6,199.5 170.5,199.5 "/>
<g>
	<g>
		<g>
			<defs>
				<path id="SVGID_4_" d="M87.6,152.4c-0.2-0.1-0.5-0.1-0.7-0.2c-12.8-4.3-23-14.5-28.1-26.9c0-0.4-0.4-0.9-0.4-1.3
					c-1.3,0.4-2.6,0.9-3.4,0.9c0.4,0.9,0.4,1.3,0.9,2.1c6,12.8,17.5,23.5,31.1,27.3c0.2,0.1,0.4,0.1,0.6,0.2V152.4z"/>
			</defs>
			<clipPath id="SVGID_5_">
				<use xlink:href="#SVGID_4_"  style="overflow:visible;"/>
			</clipPath>
			
				<linearGradient id="SVGID_6_" gradientUnits="userSpaceOnUse" x1="57.9351" y1="-843.36" x2="145.7269" y2="-872.7845" gradientTransform="matrix(1 0 0 -1 0 -728)">
				<stop  offset="0" style="stop-color:#A0A2A6"/>
				<stop  offset="1" style="stop-color:#A0A2A6;stop-opacity:0"/>
			</linearGradient>
			<path class="st7" d="M126.6,149.2c-11.9,6.4-26.9,7.7-39.7,3c-12.8-4.3-23-14.5-28.1-26.9c0-0.4-0.4-0.9-0.4-1.3
				c-1.3,0.4-2.6,0.9-3.4,0.9c0.4,0.9,0.4,1.3,0.9,2.1c6,12.8,17.5,23.5,31.1,27.3c13.6,4.3,28.6,2.6,40.5-4.7
				c12.4-6.8,21.3-18.3,25.6-31.6C147.9,131.7,138.5,142.8,126.6,149.2z"/>
		</g>
	</g>
</g>
<g>
	<g>
		<g>
			<defs>
				<path id="SVGID_7_" d="M87.6,181.4c-4.3-0.7-8.5-1.7-12.6-3.2c-9.8-3.4-18.8-9-26.4-15.8c-7.7-6.8-13.6-15.8-17.9-24.7
					c-8.5-18.8-9.4-40.5-3-59.7c3.8-11.1,9.8-21.3,17.5-29.9c-0.9-0.9-2.1-1.7-2.6-3c-8.5,9-14.9,19.6-18.8,31.1
					c-6.8,20.5-5.5,43.1,3.4,62.7s26.4,35,46.5,41.4c4.5,1.5,9.2,2.5,13.9,3.1V181.4z"/>
			</defs>
			<clipPath id="SVGID_8_">
				<use xlink:href="#SVGID_7_"  style="overflow:visible;"/>
			</clipPath>
			
				<linearGradient id="SVGID_9_" gradientUnits="userSpaceOnUse" x1="16.5126" y1="-826.7496" x2="169.2007" y2="-877.9227" gradientTransform="matrix(1 0 0 -1 0 -728)">
				<stop  offset="0" style="stop-color:#A0A2A6"/>
				<stop  offset="1" style="stop-color:#A0A2A6;stop-opacity:0"/>
			</linearGradient>
			<path class="st8" d="M135.1,173.5c-18.3,9.8-40.9,11.5-60.1,4.7c-9.8-3.4-18.8-9-26.4-15.8c-7.7-6.8-13.6-15.8-17.9-24.7
				c-8.5-18.8-9.4-40.5-3-59.7c3.8-11.1,9.8-21.3,17.5-29.9c-0.9-0.9-2.1-1.7-2.6-3c-8.5,9-14.9,19.6-18.8,31.1
				c-6.8,20.5-5.5,43.1,3.4,62.7s26.4,35,46.5,41.4c10.2,3.4,20.9,4.3,31.6,3.4c10.7-1.3,20.9-4.3,29.9-9.4
				c18.3-9.8,32.8-27.3,39.2-47.3C168,147,153.5,164.1,135.1,173.5z"/>
		</g>
	</g>
</g>
</svg>
