<svg id="Layer_1" data-name="Layer 1" xmlns="http://www.w3.org/2000/svg" xmlns:xlink="http://www.w3.org/1999/xlink" viewBox="0 0 168.12 179.98"><defs><linearGradient id="linear-gradient" x1="67.62" y1="1770.23" x2="138.59" y2="1794.01" gradientTransform="translate(0 -1752)" gradientUnits="userSpaceOnUse"><stop offset="0" stop-color="#a0a2a6"/><stop offset="1" stop-color="#a0a2a6" stop-opacity="0.4"/></linearGradient><linearGradient id="linear-gradient-2" x1="145.11" y1="1830.5" x2="186.8" y2="1844.47" gradientTransform="translate(0 -1752)" gradientUnits="userSpaceOnUse"><stop offset="0" stop-color="#a0a2a6" stop-opacity="0.3"/><stop offset="0.56" stop-color="#a0a2a6" stop-opacity="0"/></linearGradient><linearGradient id="linear-gradient-3" x1="59.33" y1="1818.91" x2="160.7" y2="1852.88" gradientTransform="translate(0 -1752)" gradientUnits="userSpaceOnUse"><stop offset="0" stop-color="#a0a2a6"/><stop offset="0.86" stop-color="#a0a2a6" stop-opacity="0"/></linearGradient><clipPath id="clip-path" transform="translate(-19.48 -19.52)"><path d="M87.6,152.4c-.2-.1-.5-.1-.7-.2-12.8-4.3-23-14.5-28.1-26.9,0-.4-.4-.9-.4-1.3a15.74,15.74,0,0,1-3.4.9,13.27,13.27,0,0,0,.9,2.1c6,12.8,17.5,23.5,31.1,27.3.2.1.4.1.6.2Z" fill="none"/></clipPath><linearGradient id="linear-gradient-4" x1="57.94" y1="1867.36" x2="145.73" y2="1896.78" gradientTransform="translate(0 -1752)" gradientUnits="userSpaceOnUse"><stop offset="0" stop-color="#a0a2a6"/><stop offset="1" stop-color="#a0a2a6" stop-opacity="0"/></linearGradient><clipPath id="clip-path-2" transform="translate(-19.48 -19.52)"><path d="M87.6,181.4A68.47,68.47,0,0,1,75,178.2a78.72,78.72,0,0,1-26.4-15.8c-7.7-6.8-13.6-15.8-17.9-24.7a82.72,82.72,0,0,1-3-59.7A87.3,87.3,0,0,1,45.2,48.1c-.9-.9-2.1-1.7-2.6-3A85.15,85.15,0,0,0,23.8,76.2a86.52,86.52,0,0,0,3.4,62.7,77.9,77.9,0,0,0,46.5,41.4,73.5,73.5,0,0,0,13.9,3.1Z" fill="none"/></clipPath><linearGradient id="linear-gradient-5" x1="16.51" y1="1850.75" x2="169.2" y2="1901.92" xlink:href="#linear-gradient-4"/></defs><title>NGNN-logo-small-dark2</title><circle cx="34.22" cy="17.88" r="9" fill="#edbd61"/><circle cx="34.62" cy="93.78" r="7.7" fill="#edbd61" opacity="0.93" style="isolation:isolate"/><circle cx="129.72" cy="17.88" r="6" fill="#edbd61" opacity="0.55" style="isolation:isolate"/><path d="M141.5,30.6a59.31,59.31,0,0,0-14.9-6.8c-20-7.2-43.1-5.1-62.3,4.7a.39.39,0,0,0-.4.4c.9.9,1.3,2.1,2.1,3a86.62,86.62,0,0,1,29-9.4c10.2-1.3,20.5,0,30.7,3a85.21,85.21,0,0,1,14.5,6.4A15.93,15.93,0,0,0,141.5,30.6Z" transform="translate(-19.48 -19.52)" fill="url(#linear-gradient)"/><path d="M171.8,65.6a72.4,72.4,0,0,0-14.5-21.7c-.4.4-.4.9-.9.9a75.47,75.47,0,0,1,14.9,21.3c9,18.8,9.8,41.4,3.4,61A82.9,82.9,0,0,0,171.8,65.6Z" transform="translate(-19.48 -19.52)" fill="url(#linear-gradient-2)"/><path d="M150.9,77.9c-5.5-12.8-16.2-23.5-29.4-28.1a52.61,52.61,0,0,0-41.4,3.4,56.74,56.74,0,0,0-26.9,32,74.38,74.38,0,0,0-3,16.6,8.83,8.83,0,0,1,3.4-.4h.9a57.15,57.15,0,0,1,3-14.9c4.3-12.8,12.8-23.9,24.7-30.3A47.94,47.94,0,0,1,121,51.9c12.8,3.9,23.9,13.7,29.9,26a55.22,55.22,0,0,1,2.1,40.5A60.18,60.18,0,0,0,150.9,77.9Z" transform="translate(-19.48 -19.52)" fill="url(#linear-gradient-3)"/><path d="M124,132.1l-7.6-10.7v77.2H92.9V70.3H110l47.7,68.2,6.8,10.7V71.1h23.1V199.5H170.5Z" transform="translate(-19.48 -19.52)" fill="#fff"/><g clip-path="url(#clip-path)"><path d="M126.6,149.2a49.53,49.53,0,0,1-39.7,3c-12.8-4.3-23-14.5-28.1-26.9,0-.4-.4-.9-.4-1.3a15.74,15.74,0,0,1-3.4.9,13.27,13.27,0,0,0,.9,2.1c6,12.8,17.5,23.5,31.1,27.3a49.48,49.48,0,0,0,40.5-4.7A55,55,0,0,0,153.1,118C147.9,131.7,138.5,142.8,126.6,149.2Z" transform="translate(-19.48 -19.52)" fill="url(#linear-gradient-4)"/></g><g clip-path="url(#clip-path-2)"><path d="M135.1,173.5A76,76,0,0,1,75,178.2a78.72,78.72,0,0,1-26.4-15.8c-7.7-6.8-13.6-15.8-17.9-24.7a82.72,82.72,0,0,1-3-59.7A87.3,87.3,0,0,1,45.2,48.1c-.9-.9-2.1-1.7-2.6-3A85.15,85.15,0,0,0,23.8,76.2a86.52,86.52,0,0,0,3.4,62.7,77.45,77.45,0,0,0,78.1,44.8,80,80,0,0,0,29.9-9.4A83.21,83.21,0,0,0,174.4,127a80.19,80.19,0,0,1-39.3,46.5Z" transform="translate(-19.48 -19.52)" fill="url(#linear-gradient-5)"/></g></svg>