<svg id="Layer_1" data-name="Layer 1" xmlns="http://www.w3.org/2000/svg" viewBox="0 0 3069.37 3069.37"><title>Podcast_ChinaPower_logo</title><rect width="3069.37" height="3069.37" fill="#ed392a"/><path d="M1848,1030.14l-14.13,69.58H1190.58c-1.43,0-2.78.31-4.18.42-1.41-.11-2.76-.42-4.19-.42a53.48,53.48,0,0,0-53.33,53.33v726.83a53.48,53.48,0,0,0,53.33,53.33H1353.9v376.92l-68.7,13.95v83.08H1530v-83.08l-69.43-14.1V1933.21h416.93a53.48,53.48,0,0,0,53.33-53.33c0-1.66-.34-3.24-.5-4.87.06-1,.31-2,.31-3V1430.35c.13-1.55.47-3,.47-4.64a53.49,53.49,0,0,0-53.33-53.33H1407.23a53.49,53.49,0,0,0-53.33,53.33,51.66,51.66,0,0,0,.56,5.44,51.2,51.2,0,0,0-.56,5.43v390H1235.54V1206.37H1834.1l13.92,68.56h83.08V1030.14ZM1460.56,1479H1824v347.51H1460.56Z" fill="#fff"/><path d="M1537,235.55c-263.12,0-510.44,113.55-696.47,319.69-24.77,27.45-46.9,59.53-66.56,94.85a93.36,93.36,0,0,0,8,9.95,103.67,103.67,0,0,0,32.49,24.7c39.78,19.88,87.92,11.49,120.57-24.7C1095.86,482,1309.6,383.73,1537,383.73S1978.06,482,2138.72,660c21.19,23.5,48.93,35.16,76.61,35.16a97.62,97.62,0,0,0,44.11-10.46A101.86,101.86,0,0,0,2292,660a90.67,90.67,0,0,0,8-9.95c-19.66-35.32-41.78-67.4-66.55-94.85C2047.39,349.1,1800.07,235.55,1537,235.55Z" fill="#303d43"/><path d="M1537,235.55c-735.35,0-916.42,570.66-916.42,1264.19h50.93C671.48,816.26,852.87,292,1537,292c686.19,0,865.46,527.75,865.46,1207.76h50.94C2453.37,805.6,2270.37,235.55,1537,235.55Z" fill="#fff"/><path d="M1537,227.11c-631.2,0-925.18,404.39-925.18,1272.63v8.44h68.45v-8.44c0-818.23,272.24-1199.32,856.73-1199.32S2393.7,681.51,2393.7,1499.74v8.44h68.44v-8.44c0-396.36-60.33-689.65-184.36-896.61C2128.23,353.63,1879,227.11,1537,227.11Zm874.23,1264.2C2409.32,667.42,2131.37,283.54,1537,283.54S664.62,667.42,662.74,1491.31H629.32C631.22,640.41,919.76,244,1537,244s905.72,396.42,907.63,1247.32Z" fill="#d0d3d3"/><path d="M2449.68,1208.86c-11.86-30.87-63.14-29.79-69.37,0a8.21,8.21,0,0,0-6,2.57,7.67,7.67,0,0,0-2.1,6q12.53,131.28,12.59,282.3v17H2471v-17c0-100.72-4-194.66-11.83-282.43A9.48,9.48,0,0,0,2449.68,1208.86Z" fill="#303d43"/><path d="M692.39,1208.86c-6.23-29.79-57.5-30.87-69.36,0a9.43,9.43,0,0,0-9.53,8.45c-7.84,87.77-11.83,181.71-11.83,282.43v17h86.25v-17q0-151.15,12.58-282.3a7.67,7.67,0,0,0-2.09-6A8.33,8.33,0,0,0,692.39,1208.86Z" fill="#303d43"/><path d="M2415.33,1432.7h-49.71v359.24h49.71c30.27,0,54.76-27.18,54.76-60.68V1493.38C2470.09,1459.86,2445.6,1432.7,2415.33,1432.7Z" fill="#0e2037"/><path d="M2415.33,1432.7h-49.71v359.24h49.71c30.27,0,54.76-27.18,54.76-60.68V1493.38C2470.09,1459.86,2445.6,1432.7,2415.33,1432.7Z" fill="#4e6e7a"/><path d="M2268.12,1197.9h-197v759.62h197c27.09-.18,62.88-22.82,77.29-52,96.58-205.31,96.58-450.39,0-655.7C2331,1220.71,2295.21,1198.06,2268.12,1197.9Z" fill="#303d43"/><path d="M2071.13,1197.9v759.62h168a64.74,64.74,0,0,0,5.52-26.41v-706.8a65.2,65.2,0,0,0-5.52-26.41Z" opacity="0.2"/><path d="M2154,1163.66h-94.25c-30.23,0-54.76,27.17-54.76,60.68v706.82c0,33.51,24.53,60.68,54.76,60.68H2154c30.27,0,54.76-27.17,54.76-60.68V1224.34C2208.72,1190.83,2184.23,1163.66,2154,1163.66Z" fill="#303d43"/><path d="M2154,1163.66h-94.25c-30.23,0-54.76,27.17-54.76,60.68v706.82c0,27.9,17.09,51.16,40.25,58.25a66.42,66.42,0,0,1-4.35-23.69V1258.9c0-33.5,24.54-60.67,54.76-60.67h94.26a49.61,49.61,0,0,1,14.54,2.43C2196.06,1178.92,2176.64,1163.66,2154,1163.66Z" fill="#303d43"/><path d="M601.69,1493.38v237.88c0,33.5,24.53,60.68,54.77,60.68h49.71V1432.7H656.46C626.22,1432.7,601.69,1459.86,601.69,1493.38Z" fill="#0e2037"/><path d="M601.69,1493.38v237.88c0,33.5,24.53,60.68,54.77,60.68h49.71V1432.7H656.46C626.22,1432.7,601.69,1459.86,601.69,1493.38Z" fill="#4e6e7a"/><path d="M726.45,1249.91c-96.69,205.27-96.69,450.39,0,655.65,14.3,29.14,50.19,51.85,77.27,52h196.9V1198H803.72C776.63,1198.08,740.75,1220.78,726.45,1249.91Z" fill="#303d43"/><path d="M825,1224.31v706.8a64.58,64.58,0,0,0,5.53,26.41h168V1197.9h-168A65,65,0,0,0,825,1224.31Z" opacity="0.2"/><path d="M1012.1,1163.66H917.85c-30.25,0-54.78,27.17-54.78,60.68v706.82c0,33.51,24.53,60.68,54.78,60.68h94.25c30.24,0,54.76-27.17,54.76-60.68V1224.34C1066.86,1190.83,1042.34,1163.66,1012.1,1163.66Z" fill="#303d43"/><path d="M1011.22,1163.66H917c-22.67,0-42.11,15.26-50.44,37a49.54,49.54,0,0,1,14.53-2.43h94.25c30.24,0,54.76,27.17,54.76,60.67v706.82a66.41,66.41,0,0,1-4.33,23.69c23.14-7.09,40.24-30.35,40.24-58.25V1224.34C1066,1190.83,1041.47,1163.66,1011.22,1163.66Z" fill="#303d43"/><path d="M663.08,2653H636.7l-7-39.09a72.19,72.19,0,0,0-22.4-14.61q-13.29-5.7-31.69-5.7-43.08,0-66.23,31.22T486.21,2704v4.36q0,48,22.68,79.42t62.91,31.41a94.87,94.87,0,0,0,34.15-5.88q15.38-5.89,23.73-14.43l7-39.09h26.38V2809q-12,15.38-35.87,27.42t-55.41,12q-53.91,0-88.44-39.85t-34.53-100.2v-4q0-60.74,34-100.48t89-39.76q31.5,0,55.41,12.24t35.87,27.42Z" fill="#fff"/><path d="M688.09,2820.56l30.93-5.32v-237.4l-30.93-5.31v-24.1H756.4v118a75,75,0,0,1,26-23,71.7,71.7,0,0,1,34.16-8.16q33,0,51.23,19.74T886,2715.8v99.44l30.93,5.32v23.91H817.7v-23.91l30.93-5.32v-99.81q0-25.44-10.91-37.58t-32.55-12.14a54.84,54.84,0,0,0-28,7.3,61.06,61.06,0,0,0-20.78,19.83v122.4l30.93,5.32v23.91H688.09Z" fill="#fff"/><path d="M944.08,2820.56l30.93-5.32V2668.55l-30.93-5.31v-24.1h68.32v176.1l30.93,5.32v23.91H944.08Zm68.32-234H975v-38.14h37.39Z" fill="#fff"/><path d="M1066.29,2820.56l30.93-5.32V2668.55l-30.93-5.31v-24.1h64.33l2.66,30.55a74.44,74.44,0,0,1,25.71-25.33q15.46-9,35.21-9,33.19,0,51.42,19.45t18.22,60.07v100.38l30.93,5.32v23.91h-99.25v-23.91l30.94-5.32v-99.63q0-27.14-10.73-38.52T1183,2665.71q-16.14,0-28.56,7.77a56.81,56.81,0,0,0-19.83,21.26v120.5l30.93,5.32v23.91h-99.25Z" fill="#fff"/><path d="M1455.88,2844.47q-1.71-8.35-2.65-15t-1.33-13.28a90.53,90.53,0,0,1-27,23.06,69.15,69.15,0,0,1-34.64,9.2q-32.07,0-48.77-15.65t-16.7-44.12q0-29.23,23.63-45.08t64.8-15.84h38.53v-23.91q0-18-11.39-28.56t-31.69-10.54a77.7,77.7,0,0,0-24.76,3.61q-10.72,3.61-17.37,9.87l-4,21.63h-28.85V2660q14-11.19,34-17.93a134.33,134.33,0,0,1,43.27-6.74q34.92,0,56.55,17.84t21.63,51.05v98.87c0,2.65,0,5.25.1,7.78s.22,5.06.47,7.59l15.19,2.09v23.91Zm-60.15-27.33a66.45,66.45,0,0,0,34-8.92q15.36-8.91,22-21.44V2753h-39.85q-23,0-36.34,10.63t-13.38,25.8q0,13.49,8.35,20.59T1395.73,2817.14Z" fill="#fff"/><path d="M1659.5,2568.16q44.22,0,68.79,22.77t24.58,60q0,37.57-24.58,60.16t-68.79,22.58h-58.63v81.6l30.93,5.32v23.91h-99.25v-23.91l30.93-5.32V2597.58l-30.93-5.32v-24.1h127Zm-58.63,136.26h58.63q28.1,0,42-15.09t14-38q0-23-14-38.33t-42-15.37h-58.63Z" fill="#fff"/><path d="M1753.9,2739.9q0-45.54,24.67-75.05t67-29.51q42.51,0,67.28,29.41t24.76,75.15v4.18q0,45.93-24.67,75.15t-67,29.22q-42.69,0-67.36-29.32t-24.67-75.05Zm37.38,4.18q0,32.64,13.76,53.89t40.89,21.26q26.57,0,40.42-21.26t13.86-53.89v-4.18q0-32.25-13.86-53.7t-40.8-21.45q-26.94,0-40.61,21.45t-13.66,53.7Z" fill="#fff"/><path d="M2025.19,2663.24l-23.54,4.17,26.76,102.29,4.37,24.86h1.14l5.31-24.86,41-130.56h30l41.18,130.56,5.88,27.7h1.14l5.51-27.7,25.24-102.29-23.92-4.17v-24.1h78.19v24.1l-17.84,2.65-51.8,178.58H2143.6l-39.85-125.06-8.54-34.54-1.14.19-8,34.35L2047,2844.47h-30.17L1965,2665.89l-18-2.65v-24.1h78.19Z" fill="#fff"/><path d="M2338.19,2848.45q-42.89,0-68.22-28.56t-25.33-74.1v-8.35q0-43.84,26.09-73t61.77-29.13q41.37,0,62.72,25t21.34,66.8v23.34H2283.35l-.57.95q.57,29.61,15,48.68t40.42,19.07q19,0,33.31-5.41a76.58,76.58,0,0,0,24.76-14.9l14.61,24.29q-11,10.64-29.13,17.94T2338.19,2848.45Zm-5.69-183.7q-18.8,0-32.07,15.85t-16.32,39.76l.38.95h94.69v-4.94q0-22-11.76-36.81T2332.5,2664.75Z" fill="#fff"/><path d="M2453.38,2663.24v-24.1h64.33l3.61,29.79q8.73-15.75,21.53-24.67a50.08,50.08,0,0,1,29.33-8.92,62.66,62.66,0,0,1,9,.67,48.42,48.42,0,0,1,7.11,1.42l-4.93,34.73-21.25-1.14q-14.8,0-24.86,6.92t-15.56,19.46v117.84l30.93,5.32v23.91h-99.25v-23.91l30.93-5.32V2668.55Z" fill="#fff"/></svg>