<svg id="Layer_1" data-name="Layer 1" xmlns="http://www.w3.org/2000/svg" viewBox="0 0 506.5 143.5"><defs><style>.cls-1{fill:#0f2a48;}.cls-2{fill:none;stroke:#ffc725;stroke-miterlimit:10;}.cls-3{fill:#ffc725;}</style></defs><title>beyond-parallel-logo_color</title><path class="cls-1" d="M91.73,78.72c6.52,0,8.48.57,11.17,3.26,2.36,2.37,3.34,5.47,3.34,10.44,0,6.85-1.14,9.7-4.89,12.07,4.4,1.71,5.87,4.81,5.87,12.64,0,6.52-.73,9.54-2.85,12.07C102,132,98.5,133.1,92.46,133.1H84.88V78.72Zm1.79,22.59c4.4,0,5.3-1.39,5.3-8.24,0-5.79-1.06-7.26-5.3-7.26H92.46V101.3ZM93.2,126c5.3,0,6.44-1.63,6.44-8.81s-1.14-8.81-6.44-8.81h-.73V126Z" transform="translate(-44 -32.5)"/><path class="cls-1" d="M131.85,78.72v7.09H121.09v15.25h7.5v7.09h-7.5V126H132.5v7.1h-19V78.72Z" transform="translate(-44 -32.5)"/><path class="cls-1" d="M136.58,78.72h8.24L149,98.77l4.16-20.06h8l-8.48,31.8V133.1h-7.58V110.52Z" transform="translate(-44 -32.5)"/><path class="cls-1" d="M186.89,119.24c0,6.52-.24,7.83-1.71,10.19a11.38,11.38,0,0,1-18.1,0c-1.47-2.37-1.71-3.75-1.71-10.19V92.49c0-6.44.24-7.83,1.71-10.19a11.51,11.51,0,0,1,18.1,0c1.47,2.37,1.71,3.75,1.71,10.19ZM179.31,89.4c0-3.1-.9-4.41-3.18-4.41s-3.18,1.31-3.18,4.41v33c0,3.1.9,4.4,3.18,4.4s3.18-1.31,3.18-4.4Z" transform="translate(-44 -32.5)"/><path class="cls-1" d="M217.39,133.1H209.8l-9-28.54V133.1h-7.58V78.72h6.52l10,32v-32h7.58Z" transform="translate(-44 -32.5)"/><path class="cls-1" d="M232,78.72c5.3,0,7.75.73,10,3s3.43,5.46,3.43,9.54v29.27c0,4.08-1.14,7.34-3.43,9.54s-4.73,3-10,3h-8.07V78.72Zm.49,47.29c4.16,0,5.38-1.22,5.38-5.46V91.27c0-4.16-1.31-5.46-5.38-5.46h-1V126Z" transform="translate(-44 -32.5)"/><path class="cls-1" d="M333.3,78.71c6.61,0,9.05.81,11.25,3.59s2.94,5.71,2.94,12.64c0,7.26-.65,10-2.85,12.56-2,2.28-5.3,3.51-9.87,3.51h-1.06v22.1h-7.59V78.71ZM334.77,104c4.49,0,5.38-1.47,5.38-9.13s-.9-9.05-5.38-9.05h-1.06V104Z" transform="translate(-44 -32.5)"/><path class="cls-1" d="M357.93,133.1h-7.34L358,78.71h9.79l7.09,54.39h-7.42l-1.39-12.23h-6.85Zm4.73-44.52-2.61,25.2h5.22Z" transform="translate(-44 -32.5)"/><path class="cls-1" d="M387.78,78.71c6.11,0,8.89,1,11.09,3.83,2,2.53,2.86,6.2,2.86,11.34,0,6.77-.73,9.21-3.83,13.21l5.3,26H395l-4.41-23.4a17.26,17.26,0,0,1-2.69.33V133.1h-7.58V78.71ZM389,102.36c2.45,0,3.83-.57,4.56-2,.57-1.06.74-2.36.74-7.34,0-5.87-1.06-7.26-5.3-7.26h-1.06v16.55Z" transform="translate(-44 -32.5)"/><path class="cls-1" d="M415.74,133.1H408.4l7.42-54.39h9.79l7.09,54.39h-7.42l-1.39-12.23H417Zm4.73-44.52-2.61,25.2h5.22Z" transform="translate(-44 -32.5)"/><path class="cls-1" d="M437.29,90.36h7.59v53.12h0v7.1h-7.59Z" transform="translate(-44 -32.5)"/><path class="cls-1" d="M449.43,58.33H457v61.85h0v7.1h-7.56Z" transform="translate(-44 -32.5)"/><path class="cls-1" d="M482,78.71v7.09H471.19v15.25h7.5v7.09h-7.5V126h11.42v7.1h-19V78.71Z" transform="translate(-44 -32.5)"/><path class="cls-1" d="M487.58,78.71h7.58V126h10.76v7.1H487.58Z" transform="translate(-44 -32.5)"/><path class="cls-1" d="M294.65,79.69v38.19h-5.77V78.47a28.83,28.83,0,0,0-3-.15,28.51,28.51,0,0,0-8.25,55.8V97.31h5.77v37.91c.82.07,1.64.11,2.48.11a28.51,28.51,0,0,0,8.75-55.65Z" transform="translate(-44 -32.5)"/><rect class="cls-2" x="6" y="6.5" width="495" height="131"/><rect class="cls-3" y="109.5" width="12" height="31"/><rect class="cls-3" x="53.5" y="154.5" width="12" height="31" transform="translate(-154.5 197) rotate(-90)"/><rect class="cls-3" x="538.5" y="35.5" width="12" height="31" transform="translate(1045 69.5) rotate(-180)"/><rect class="cls-3" x="529" y="23" width="12" height="31" transform="translate(529.5 -529) rotate(90)"/></svg>